<svg version="1.1" id="Layer_1" xmlns="http://www.w3.org/2000/svg" xmlns:xlink="http://www.w3.org/1999/xlink" x="0px" y="0px" viewBox="0 0 500 500" style="width: 144px;" xml:space="preserve" data-imageid="adventure-63" imageName="Adventure" class="illustrations_image">
<style type="text/css">
	.st0_adventure-63{fill:#D1D3D4;}
	.st1_adventure-63{fill:#FFFFFF;}
	.st2_adventure-63{fill:#68E1FD;}
	.st3_adventure-63{fill:#231F20;}
</style>
<g id="Frame_adventure-63">
	<path class="st0_adventure-63" d="M460.8,419.9H39.2c-0.4,0-0.7-0.3-0.7-0.7l0,0V106.4c0-0.4,0.3-0.7,0.7-0.7h421.6c0.4,0,0.7,0.3,0.7,0.7v0&#10;&#9;&#9;v312.8C461.5,419.6,461.2,419.9,460.8,419.9z M39.9,418.5h420.2V107.1H39.9V418.5z"/>
</g>
<g id="Cloud_adventure-63">
	<path class="st1_adventure-63" d="M460.8,143.9v54.6c-54-0.6-115.7-1.5-116.1-2.6l34.2-8.9c-1.2-1-2.2-2.1-3.2-3.3c-1.5-2.3,1.3-5.1,4.8-5.9&#10;&#9;&#9;s7,0.1,10.4,0.8c-4.1-3.1-4-8.6,0.3-11.6s11.9-2.8,15.9,0.4c-2.3-5.4-4.5-11-3.3-16.6c1.8-8.5,12-15.4,23.7-16.9s23.9,2.1,31.7,8.6&#10;&#9;&#9;C459.8,143,460.3,143.4,460.8,143.9z"/>
	<path class="st0_adventure-63" d="M460.8,199.1L460.8,199.1c-116.1-1.2-116.4-2.2-116.7-3.1c-0.1-0.2-0.1-0.4,0-0.6c0.1-0.2,0.3-0.3,0.5-0.4&#10;&#9;&#9;l33-8.6c-0.9-0.8-1.6-1.6-2.3-2.6c-0.6-0.9-0.7-2.1-0.2-3.1c0.8-1.8,2.9-3.3,5.4-3.8c2.8-0.4,5.6-0.3,8.4,0.3&#10;&#9;&#9;c-1-1.3-1.5-2.9-1.5-4.6c0.1-2.6,1.4-4.9,3.6-6.4c3.9-2.7,10.4-2.9,14.8-0.8c-1.9-4.5-3.6-9.8-2.5-15c1.8-8.5,12-15.9,24.2-17.4&#10;&#9;&#9;c11.4-1.4,24.1,2,32.3,8.7c0.5,0.4,1.1,0.9,1.6,1.4c0.1,0.1,0.2,0.3,0.2,0.5v54.6c0,0.2-0.1,0.4-0.2,0.5&#10;&#9;&#9;C461.1,199.1,461,199.1,460.8,199.1z M348.4,195.6c8.2,0.5,34.6,1.3,111.7,2.1v-53.5c-0.4-0.4-0.9-0.8-1.3-1.1&#10;&#9;&#9;c-7.9-6.5-20.2-9.8-31.2-8.4c-11.6,1.5-21.4,8.3-23.1,16.3c-1.2,5.6,1.3,11.4,3.3,16.2c0.1,0.4,0,0.8-0.4,0.9&#10;&#9;&#9;c-0.2,0.1-0.5,0.1-0.7-0.1c-3.7-2.9-11.1-3.1-15.1-0.3c-1.8,1.1-2.9,3.1-3,5.2c0,2.1,1,4,2.7,5.2c0.3,0.2,0.4,0.5,0.2,0.9&#10;&#9;&#9;c-0.1,0.3-0.5,0.5-0.8,0.4c-3-0.7-6.8-1.5-10.1-0.8c-2,0.4-3.9,1.7-4.4,3c-0.3,0.6-0.2,1.3,0.1,1.8c0.9,1.1,1.9,2.2,3,3.1&#10;&#9;&#9;c0.2,0.2,0.3,0.4,0.2,0.7c-0.1,0.3-0.3,0.5-0.5,0.5L348.4,195.6z M344.8,195.9L344.8,195.9z"/>
	<path class="st0_adventure-63" d="M449.8,162.9c-0.3,0-0.6-0.2-0.7-0.5c-0.1-0.4,0.1-0.8,0.5-0.9c3.7-1,7.6-1.2,11.3-0.6&#10;&#9;&#9;c0.4,0.1,0.6,0.4,0.5,0.8c-0.1,0.4-0.4,0.6-0.8,0.6c0,0,0,0,0,0c-3.6-0.6-7.2-0.4-10.7,0.6L449.8,162.9z"/>
	<path class="st0_adventure-63" d="M406.6,184.7c-0.3,0-0.5-0.1-0.6-0.4c-0.1-0.1-5.6-10.4,4.2-20.4s18.9-3.4,19-3.3c0.3,0.2,0.4,0.7,0.1,1&#10;&#9;&#9;c-0.2,0.3-0.7,0.4-1,0.1c-0.3-0.2-8.1-6-17.1,3.2s-4.1,18.6-4,18.7c0.2,0.3,0,0.8-0.3,0.9C406.9,184.7,406.8,184.7,406.6,184.7&#10;&#9;&#9;L406.6,184.7z"/>
	<path class="st0_adventure-63" d="M411.7,148.1c-0.1,0-0.2,0-0.3-0.1c-0.4-0.1-0.5-0.5-0.4-0.9c0,0,0,0,0,0c1.4-4,5.1-6.7,9.3-6.8&#10;&#9;&#9;c0.4,0,0.7,0.3,0.7,0.7c0,0,0,0,0,0c0,0.4-0.3,0.7-0.7,0.7c0,0,0,0,0,0c-0.2,0-5.6-0.1-8,5.9C412.2,147.9,412,148.1,411.7,148.1z"/>
</g>
<g id="Background_adventure-63">
	<path class="st1_adventure-63" d="M39.2,419.6l414.5-0.6l-15.4-60.2l-22.7-3.5l-12-24.5c0,0-27.6-20.9-39.7-21.6S353.2,285,344.7,278&#10;&#9;&#9;s-180.6-39.6-180.6-39.6s-6.6-8.6-8.7-17.9s-34-12-38.3-15.5s-9.2-22-14.9-30.8c-4.6-7-46.8-37.8-63.1-40L39.2,419.6z"/>
	<path class="st0_adventure-63" d="M39.2,420.3c-0.4,0-0.7-0.3-0.7-0.7c0,0,0,0,0,0V134.3c0-0.4,0.3-0.7,0.7-0.7c0,0,0.1,0,0.1,0&#10;&#9;&#9;c16.4,2.1,59.1,33.3,63.6,40.3c2.7,4.1,5.1,10.2,7.5,16.2c2.6,6.5,5.1,12.6,7.2,14.4c1.4,1.1,6.4,2.3,11.8,3.6&#10;&#9;&#9;c11.2,2.6,25.2,5.9,26.7,12.3c1.9,8.2,7.4,16,8.5,17.4c10.2,1.9,172.1,32.6,180.6,39.7c3.8,3.1,5.6,9.2,7.5,15.1&#10;&#9;&#9;c2.5,8,4.8,15.5,11.3,15.9c12.1,0.7,38.9,20.9,40.1,21.8c0.1,0.1,0.2,0.2,0.2,0.2l11.9,24.1l22.4,3.5c0.3,0,0.5,0.2,0.6,0.5&#10;&#9;&#9;l15.4,60.2c0,0.2,0,0.4-0.1,0.6c-0.1,0.2-0.3,0.3-0.5,0.3L39.2,420.3L39.2,420.3z M39.9,135.1v283.8l412.9-0.6l-15-58.9l-22.3-3.4&#10;&#9;&#9;c-0.2,0-0.4-0.2-0.5-0.4l-12-24.4c-2.1-1.6-27.9-20.8-39.2-21.4c-7.5-0.4-10-8.8-12.5-16.9c-1.8-5.7-3.6-11.6-7-14.4&#10;&#9;&#9;c-6.6-5.5-120.8-28.2-180.2-39.5c-0.2,0-0.3-0.1-0.4-0.3c-0.3-0.4-6.7-8.8-8.9-18.1c-1.3-5.6-15.4-8.9-25.7-11.3&#10;&#9;&#9;c-6-1.4-10.8-2.5-12.4-3.9c-2.4-2-4.8-8-7.6-15c-2.3-5.9-4.8-11.9-7.4-15.9C97.3,167.9,56.6,138,39.9,135.1L39.9,135.1z"/>
	<path class="st0_adventure-63" d="M117.2,205c0,0,11.3,91.2,11.3,95.9v37L133,297l-9.4-90.5L117.2,205z"/>
	<path class="st0_adventure-63" d="M128.5,338.5L128.5,338.5c-0.4,0-0.7-0.3-0.7-0.7v-37c0-4.6-11.2-94.9-11.3-95.8c0-0.2,0.1-0.5,0.2-0.6&#10;&#9;&#9;c0.2-0.2,0.4-0.2,0.6-0.2l6.4,1.5c0.3,0.1,0.5,0.3,0.5,0.6l9.4,90.5v0.1l-4.5,40.9C129.2,338.3,128.9,338.6,128.5,338.5&#10;&#9;&#9;C128.5,338.6,128.5,338.6,128.5,338.5z M118,205.9c1.3,10.4,11.2,90.5,11.2,95V325l3.1-28.1l-9.4-90L118,205.9z"/>
	<path class="st0_adventure-63" d="M357.9,306.1c0,0,8.4,21.6,9.8,29.2s11.4,48.6,11.4,48.6s-6.1-43.4-6.8-48s-4.8-17.7-4.8-17.7&#10;&#9;&#9;s11.9,10.5,13.8,12.9s7.8,20.4,7.8,20.4s-4.6-23.8-7.1-26.6s-18.1-15.8-18.1-15.8L357.9,306.1z"/>
	<path class="st0_adventure-63" d="M379,384.6c-0.3,0-0.6-0.2-0.7-0.5c-0.1-0.4-10-41-11.4-48.6s-9.7-28.9-9.8-29.1c-0.1-0.4,0-0.8,0.4-0.9&#10;&#9;&#9;c0.2-0.1,0.4-0.1,0.6,0l6,3.1l0.1,0.1c0.6,0.5,15.7,13,18.2,15.9s6.8,24.5,7.2,26.9c0.1,0.4-0.2,0.7-0.6,0.8&#10;&#9;&#9;c-0.3,0.1-0.7-0.1-0.8-0.5c-1.6-5-6.1-18.2-7.7-20.2s-8.5-8.1-11.9-11.2c1.2,4,3.5,12,4.1,15.5c0.7,4.6,6.7,47.5,6.8,48&#10;&#9;&#9;c0.1,0.4-0.2,0.7-0.6,0.8L379,384.6z M359.2,307.6c2,5.3,8,21.2,9.2,27.6c0.9,4.6,4.9,21.8,7.9,34.4c-1.8-13.1-4.3-30.8-4.8-33.6&#10;&#9;&#9;c-0.7-4.5-4.7-17.5-4.8-17.6c-0.1-0.3,0-0.6,0.3-0.8c0.3-0.2,0.6-0.1,0.8,0.1c0.5,0.4,12,10.5,13.9,13c0.9,1.2,2.6,5.5,4.2,9.9&#10;&#9;&#9;c-1.6-7.2-3.5-13.9-4.6-15.2c-2.3-2.7-16.9-14.8-17.9-15.6L359.2,307.6z"/>
	<path class="st0_adventure-63" d="M77.5,266.9c0,0,10.6,26.6,12.8,42.9s-9.9,77.6-9.9,77.6s6.6-66.8,3.7-81.4S77.5,266.9,77.5,266.9z"/>
	<path class="st0_adventure-63" d="M80.3,388.2h-0.1c-0.4-0.1-0.6-0.4-0.6-0.8c0.1-0.7,6.6-66.8,3.7-81.2s-6.5-39-6.5-39.2&#10;&#9;&#9;c-0.1-0.4,0.2-0.7,0.5-0.8c0.3-0.1,0.7,0.1,0.8,0.4c0.1,0.3,10.7,26.9,12.8,43.1s-9.4,75.4-9.9,77.9&#10;&#9;&#9;C80.9,387.9,80.6,388.2,80.3,388.2z M79.1,273.2c1.3,8.3,3.5,22.8,5.5,32.7c2.1,10.4-0.5,45.7-2.3,66.4c3.4-19.2,8.6-51.4,7.1-62.4&#10;&#9;&#9;C88.1,298.6,82.3,282,79.1,273.2z"/>
	<path class="st0_adventure-63" d="M348.3,373.7L348.3,373.7c-0.5,0-0.7-0.4-0.7-0.8c0-0.1,1.4-12.1,0-18.2s-8.7-16.7-8.8-16.8&#10;&#9;&#9;c-0.2-0.3-0.2-0.8,0.2-1c0,0,0,0,0,0c0.3-0.2,0.7-0.2,1,0.1c0,0,0,0,0,0c0.3,0.4,7.5,10.9,9,17.3s0.1,18.2,0,18.7&#10;&#9;&#9;C349,373.5,348.6,373.7,348.3,373.7z"/>
	<path class="st0_adventure-63" d="M90.5,213.2c-0.3,0-0.5-0.2-0.6-0.4c-1.9-4.1-4.1-8.2-6.5-12.1c-4.1-6.7-10-18.4-10.1-18.5&#10;&#9;&#9;c-0.2-0.3,0-0.8,0.3-0.9c0.3-0.2,0.8,0,0.9,0.3c0,0,0,0,0,0c0.1,0.1,6,11.8,10,18.4c2.4,3.9,4.6,8,6.6,12.2c0.2,0.3,0,0.8-0.3,0.9&#10;&#9;&#9;c0,0,0,0,0,0C90.6,213.1,90.6,213.2,90.5,213.2z"/>
	<path class="st0_adventure-63" d="M171,319.1c-0.4,0-0.7-0.3-0.7-0.7c-0.4-4.7-1.1-9.4-2.3-14c-0.1-0.4,0.1-0.8,0.5-0.9c0.4-0.1,0.8,0.1,0.9,0.5&#10;&#9;&#9;c1.2,4.7,2,9.5,2.3,14.3C171.7,318.7,171.4,319.1,171,319.1C171,319.1,171,319.1,171,319.1L171,319.1z"/>
	<path class="st0_adventure-63" d="M164.2,238.4c0,0,5.9,10.9,5.7,14.8c-0.2,3.9,0,23.8,0,23.8s5.4-21.4,5.1-24.6c-0.3-2.5-0.8-5-1.4-7.4&#10;&#9;&#9;c0,0,5.3,0.6,6.4,5.8v-9.4L164.2,238.4z"/>
	<path class="st0_adventure-63" d="M169.8,277.7L169.8,277.7c-0.4,0-0.7-0.3-0.7-0.7c0-0.8-0.2-20,0-23.9c0.2-3-4-11.4-5.6-14.4&#10;&#9;&#9;c-0.2-0.3,0-0.8,0.3-0.9c0.1-0.1,0.3-0.1,0.4-0.1l15.7,3c0.3,0.1,0.6,0.4,0.6,0.7v9.4c0,0.4-0.3,0.7-0.6,0.7&#10;&#9;&#9;c-0.4,0-0.7-0.2-0.8-0.6c-0.5-2.4-2.3-4.4-4.8-5c0.5,2.1,0.9,4.3,1.2,6.4c0.4,3.2-4.6,22.6-5.1,24.8&#10;&#9;&#9;C170.4,277.5,170.1,277.7,169.8,277.7z M165.5,239.3c1.6,3,5.2,10.6,5.1,13.9c-0.1,2.5-0.1,12.1,0,18.3c1.7-7.1,4-17,3.8-19&#10;&#9;&#9;c-0.3-2.5-0.8-4.9-1.4-7.4c-0.1-0.2,0-0.5,0.1-0.6c0.2-0.2,0.4-0.3,0.6-0.2c2.2,0.3,4.2,1.5,5.6,3.2v-5.6L165.5,239.3z"/>
	<path class="st0_adventure-63" d="M53.8,420.3L53.8,420.3c-0.5,0-0.7-0.4-0.7-0.8c0.1-0.9,9.9-84.8,9.5-98.8s-9.4-94-9.5-94.8&#10;&#9;&#9;c0-0.4,0.2-0.7,0.6-0.8c0.4,0,0.7,0.2,0.8,0.6c0.1,0.8,9,80.9,9.5,94.9c0.5,14.1-9,95.6-9.5,99C54.5,420.1,54.2,420.3,53.8,420.3z"/>
	<path class="st0_adventure-63" d="M101.6,419.6c0,0,4-24.4,6.5-36.2s3.3-34.5,3.3-34.5s6.3,30.7,5.8,40.3s0,29.8,0,29.8L101.6,419.6z"/>
	<path class="st0_adventure-63" d="M101.6,420.3c-0.2,0-0.4-0.1-0.5-0.2c-0.1-0.2-0.2-0.4-0.2-0.6c0-0.2,4-24.5,6.5-36.2s3.2-34.2,3.3-34.4&#10;&#9;&#9;c0-0.4,0.4-0.7,0.7-0.7c0.3,0,0.6,0.2,0.6,0.5c0.3,1.3,6.3,30.9,5.8,40.5s0,29.5,0,29.7c0,0.4-0.3,0.7-0.7,0.7L101.6,420.3&#10;&#9;&#9;L101.6,420.3z M111.8,354.8c-0.4,7.6-1.3,20.8-3,28.8c-2.2,10.4-5.6,30.9-6.4,35.3l14-0.6c-0.1-3.6-0.4-20.7,0-29.1&#10;&#9;&#9;C116.8,382.3,113.6,364.1,111.8,354.8z"/>
	<path class="st0_adventure-63" d="M402.3,419c0,0,3.4-20.9,0-29.8c-1.9-4.7-3.3-9.6-4.1-14.5c0,0,9,13.2,10.1,19.5s4.5,16.9,5.3,19.5l2-9.7&#10;&#9;&#9;l14.9,14.9H402.3z"/>
	<path class="st0_adventure-63" d="M430.5,419.7h-28.2c-0.2,0-0.4-0.1-0.5-0.2c-0.1-0.2-0.2-0.4-0.1-0.6c0-0.2,3.3-20.8,0-29.4&#10;&#9;&#9;c-1.9-4.7-3.3-9.7-4.2-14.7c0-0.3,0.1-0.6,0.4-0.8c0.3-0.1,0.6,0,0.8,0.3c0.4,0.5,9.1,13.4,10.3,19.8c1.2,5.7,2.7,11.3,4.5,16.8&#10;&#9;&#9;l1.4-7c0.1-0.3,0.2-0.5,0.5-0.5c0.2-0.1,0.5,0,0.7,0.2l15,14.9c0.2,0.2,0.3,0.5,0.2,0.8C431.1,419.5,430.8,419.7,430.5,419.7z&#10;&#9;&#9; M403.1,418.3h25.7L416,405.5l-1.7,8.4c-0.1,0.3-0.3,0.5-0.7,0.5c-0.3,0-0.6-0.2-0.7-0.5c-0.1-0.5-0.4-1.3-0.7-2.3&#10;&#9;&#9;c-1.3-4.2-3.7-12.1-4.6-17.3c-0.8-4.3-5.4-12-8.1-16.3c0.9,3.7,2.1,7.3,3.4,10.9C406,397,403.7,414.3,403.1,418.3z"/>
	<path class="st1_adventure-63" d="M415.6,355.3c0,0,8,20.4,8,33.9"/>
	<path class="st0_adventure-63" d="M423.6,389.9c-0.4,0-0.7-0.3-0.7-0.7v0c0-13.2-7.9-33.5-8-33.7c-0.1-0.4,0.1-0.8,0.5-0.9&#10;&#9;&#9;c0.3-0.1,0.7,0.1,0.8,0.4c0.3,0.8,8.1,20.7,8.1,34.2C424.3,389.6,424,389.9,423.6,389.9z"/>
</g>
<g id="Character_adventure-63">
	<path class="st2_adventure-63 targetColor" d="M281.8,83.6c0,0-13.3,0.6-19.1,5.5s-8.6,16.1-18.8,14.3s-21.4,25.7-21.4,25.7s12.5-13.3,26.1-8.9&#10;&#9;&#9;s14.4,2.5,20.4-1.9s25.2-1.7,25.2-1.7L281.8,83.6z" style="fill: rgb(255, 0, 199);"/>
	<path class="st1_adventure-63" d="M317.1,228.4c0,0,8.3-0.2,11.7-3.9s8.2-5.4,9.2-4.6s1.8,7.6,1.1,8.3s-21.2,10.9-21.7,11.1"/>
	<path class="st3_adventure-63" d="M317.5,240c-0.3,0-0.6-0.2-0.7-0.5c-0.1-0.4,0.1-0.8,0.5-0.9c1-0.4,20.4-10.1,21.5-10.9&#10;&#9;&#9;c0.4-0.9-0.4-6.6-1.1-7.2c-0.6-0.4-4.9,0.9-8.3,4.6c-3.6,3.9-11.9,4.1-12.2,4.1c-0.4,0-0.7-0.3-0.7-0.7c0-0.4,0.3-0.7,0.7-0.7&#10;&#9;&#9;c0.1,0,8-0.2,11.2-3.6s8.5-6,10.2-4.7c1.2,0.9,1.6,5.3,1.6,5.8c0.2,2.9-0.2,3.4-0.4,3.6c-0.9,1-21.9,11.2-22,11.2L317.5,240z"/>
	<path class="st3_adventure-63" d="M290.3,192.8c0,0-43.8-5.3-52.1-3.1s-9.3,12.4-9.3,12.4c-3.3,1.8-6.3,4.2-8.7,7c-3.6,4.4-6.8,48.9-3.4,53.3&#10;&#9;&#9;s58.1,5.6,64.4,2.5S290.3,192.8,290.3,192.8z"/>
	<path class="st3_adventure-63" d="M257.9,267.2c-17.8,0-39.3-1.5-41.6-4.5c-3.4-4.4-0.6-49.5,3.4-54.2c2.4-2.8,5.4-5.2,8.6-6.9&#10;&#9;&#9;c0.3-1.9,1.9-10.5,9.8-12.6c8.3-2.2,50.6,2.9,52.4,3.1c0.4,0,0.6,0.4,0.6,0.7c-0.3,7.1-2.9,69.4-9.5,72.6&#10;&#9;&#9;C279,266.6,269.2,267.2,257.9,267.2z M245.1,189.8c-2.3-0.1-4.6,0.1-6.8,0.5c-7.7,2.1-8.8,11.6-8.8,11.7c0,0.2-0.2,0.4-0.4,0.6&#10;&#9;&#9;c-3.2,1.7-6.1,4-8.5,6.8c-3.6,4.3-6.4,48.5-3.3,52.5c2.8,3.6,56.8,5.5,63.6,2.3c4.3-2.1,7.6-44.2,8.6-70.7&#10;&#9;&#9;C285.1,192.9,258.8,189.8,245.1,189.8z"/>
	<path class="st3_adventure-63" d="M232.7,170.7l60.8,6.7c0,0,5.7,0.8,4.8,7.9s-4.9,6.9-4.9,6.9l-61.9-2L232.7,170.7z"/>
	<path class="st3_adventure-63" d="M293.5,192.9L293.5,192.9l-61.9-2c-0.2,0-0.4-0.1-0.5-0.2c-0.1-0.1-0.2-0.3-0.2-0.5l1.2-19.5&#10;&#9;&#9;c0-0.2,0.1-0.4,0.2-0.5c0.1-0.1,0.3-0.2,0.5-0.2l60.8,6.7c0.1,0,6.4,1,5.4,8.6C298.2,192.8,293.8,192.9,293.5,192.9z M232.3,189.5&#10;&#9;&#9;l61.2,2c0.1,0,3.4-0.1,4.2-6.3s-4-7-4.2-7.1l-60.1-6.6L232.3,189.5z"/>
	
		<ellipse transform="matrix(6.070018e-02 -0.9982 0.9982 6.070018e-02 37.9617 401.1595)" class="st3_adventure-63" cx="232.1" cy="180.4" rx="9.8" ry="5.4"/>
	<path class="st3_adventure-63" d="M231.8,190.9h-0.2c-1.7-0.1-3.2-1.3-4.2-3.5c-1-2.3-1.4-4.8-1.2-7.3c0.4-5.9,3.3-10.3,6.7-10.1s5.8,5,5.5,10.8&#10;&#9;&#9;l0,0C237.9,186.5,235.1,190.9,231.8,190.9z M232.6,171.4c-2.5,0-4.8,3.9-5.1,8.8c-0.2,2.3,0.2,4.6,1.1,6.6c0.8,1.7,1.9,2.6,3.1,2.7&#10;&#9;&#9;c2.5,0.2,5-3.9,5.3-8.8s-1.6-9.2-4.2-9.3L232.6,171.4z M237.6,180.8L237.6,180.8z"/>
	<path class="st3_adventure-63" d="M360.6,297.8c-0.6,0-1.1-0.4-1.3-0.9L279.4,81.6c-0.3-0.7,0.1-1.5,0.8-1.8s1.5,0.1,1.8,0.8l79.9,215.3&#10;&#9;&#9;c0.3,0.7-0.1,1.5-0.8,1.8C360.9,297.8,360.8,297.8,360.6,297.8z"/>
	<path class="st1_adventure-63" d="M293.1,208.4c0,0,19.2-12.6,19.6-13.8s0.7-4.7,1.4-5.7s6.3-6,7.6-6s2,1.6,2,1.6s1.3-1.1,2,0.3&#10;&#9;&#9;c0.4,1,0.5,2,0.3,3c0,0,2.7-0.5,2.2,1.1s-6.4,9.5-13.3,15.7s-19,15.2-19,15.6"/>
	<path class="st3_adventure-63" d="M295.9,220.8c-0.4,0-0.7-0.3-0.7-0.6c-0.1-0.5-0.1-0.5,5.5-4.9c4.1-3.3,9.8-7.8,13.8-11.3&#10;&#9;&#9;c6.9-6.1,12.6-13.9,13.1-15.4c0-0.1,0-0.1,0-0.2c-0.5-0.1-0.9-0.1-1.4,0c-0.2,0-0.5,0-0.6-0.2c-0.2-0.2-0.2-0.4-0.2-0.6&#10;&#9;&#9;c0.1-0.9,0-1.7-0.3-2.6c0-0.1-0.1-0.2-0.2-0.3s-0.5,0.1-0.6,0.2c-0.2,0.1-0.4,0.2-0.6,0.1c-0.2-0.1-0.4-0.2-0.5-0.4&#10;&#9;&#9;c0,0-0.5-1.1-1.3-1.1c-1,0.1-6.2,4.6-7.1,5.8c-0.4,1-0.7,2-0.8,3.1c-0.1,0.8-0.3,1.6-0.5,2.4c-0.5,1.2-12.7,9.4-19.9,14.1&#10;&#9;&#9;c-0.3,0.2-0.8,0.1-1-0.2c-0.2-0.3-0.1-0.8,0.2-1c7.1-4.7,18.6-12.4,19.4-13.5c0.2-0.7,0.3-1.3,0.4-2c0.3-1.8,0.6-3.1,1.1-3.7&#10;&#9;&#9;s6.4-6.2,8.2-6.3l0,0c0.9,0,1.7,0.5,2.2,1.3c0.4-0.2,0.8-0.2,1.1-0.1c0.5,0.1,1,0.5,1.2,1.1c0.3,0.8,0.5,1.6,0.5,2.5&#10;&#9;&#9;c0.7-0.1,1.3,0.1,1.8,0.6c0.4,0.4,0.4,1,0.2,1.5c-0.6,1.9-6.8,9.9-13.5,16c-4,3.6-9.7,8.1-13.8,11.4c-2.4,1.9-4.6,3.7-5,4.1&#10;&#9;&#9;C296.4,220.7,296.2,220.8,295.9,220.8L295.9,220.8z"/>
	<path class="st1_adventure-63" d="M326.3,227c0.3-0.4,2.7-4.5,4.6-7s2.1-2.9,3-2.1s-2.7,7.6-2.7,7.6"/>
	<path class="st3_adventure-63" d="M326.3,227.6c-0.2,0-0.3-0.1-0.4-0.1c-0.3-0.2-0.4-0.7-0.2-1c0,0,0,0,0,0c0.1-0.1,0.3-0.5,0.7-1.1&#10;&#9;&#9;c1-1.5,2.5-4.1,3.9-5.9c1.5-2,2-2.7,2.8-2.8c0.5,0,0.9,0.2,1.2,0.5c0.3,0.3,1.2,1.1-2.5,8.4c-0.2,0.3-0.6,0.5-0.9,0.3&#10;&#9;&#9;c-0.3-0.2-0.5-0.6-0.3-0.9c1.4-2.7,2.8-6,2.8-6.8c-0.1-0.1-0.1-0.1-0.1-0.1s-0.9,1.1-1.7,2.2c-1.3,1.8-2.9,4.3-3.8,5.8&#10;&#9;&#9;c-0.4,0.6-0.7,1.1-0.8,1.2C326.7,227.5,326.5,227.6,326.3,227.6z"/>
	<path class="st1_adventure-63" d="M248.3,301.3c0,0-8.8,32.1-27.3,52.8l-10.6-5l18.6-52.6L248.3,301.3z"/>
	<path class="st3_adventure-63" d="M221,354.8c-0.1,0-0.2,0-0.3-0.1l-10.7-5c-0.3-0.2-0.5-0.5-0.4-0.9l18.6-52.6c0.1-0.3,0.5-0.5,0.8-0.5&#10;&#9;&#9;l19.3,4.8c0.2,0,0.3,0.2,0.4,0.3c0.1,0.2,0.1,0.4,0.1,0.5c-0.1,0.3-9,32.5-27.4,53.1C221.4,354.7,221.2,354.8,221,354.8z&#10;&#9;&#9; M211.2,348.8l9.6,4.5c16.5-18.7,25.2-46.7,26.6-51.5l-18-4.5L211.2,348.8z"/>
	<path class="st1_adventure-63" d="M287.8,278.6c0,0,8.3,7.4,19,6.2c0,0-8.5,28-5.8,44l9.1,1.5c0,0,20.5-48.3,15.9-55.5&#10;&#9;&#9;c-5.6-8.7-27.7-12.4-27.7-12.4L287.8,278.6z"/>
	<path class="st3_adventure-63" d="M310.1,331.1L310.1,331.1l-9.2-1.5c-0.3-0.1-0.5-0.3-0.6-0.6c-2.4-14.5,4-38.2,5.5-43.4&#10;&#9;&#9;c-10.4,0.6-18.2-6.2-18.5-6.5c-0.3-0.2-0.3-0.6-0.1-0.9l10.5-16.2c0.2-0.2,0.4-0.3,0.7-0.3c0.9,0.2,22.4,3.9,28.1,12.8&#10;&#9;&#9;c0.8,1.2,3.1,4.8-6.1,31.1c-4.5,12.9-9.6,25-9.7,25.1C310.6,330.9,310.4,331.1,310.1,331.1z M301.5,328.3l8.1,1.3&#10;&#9;&#9;c5.8-13.7,19.3-48.8,15.7-54.4c-4.9-7.7-23.6-11.5-26.7-12l-10,15.3c1.9,1.5,9.1,6.6,18,5.7c0.2,0,0.5,0.1,0.6,0.2&#10;&#9;&#9;c0.2,0.2,0.2,0.4,0.1,0.7C307.3,285.3,299.1,312.5,301.5,328.3L301.5,328.3z"/>
	<path class="st2_adventure-63 targetColor" d="M287,199.9c5.5,4.1,12.6,30.6,12.6,30.6l25-4.6l2.1,10.7c0,0-14.2,10.6-32.5,9.1&#10;&#9;&#9;c-14.3-9.5-16.4-18.5-16.4-18.5S279.2,203,287,199.9z" style="fill: rgb(255, 0, 199);"/>
	<path class="st1_adventure-63" d="M279,248.7l32.7,14.5L289,283.1l-23.4-5.6l-12.4,28.1l-29.4-2c0,0,16.3-49.8,19.9-59.1L279,248.7z"/>
	<path class="st3_adventure-63" d="M253.2,306.4L253.2,306.4l-29.4-2c-0.2,0-0.4-0.1-0.5-0.3c-0.1-0.2-0.2-0.4-0.1-0.6c0.2-0.5,16.3-50,19.9-59.1&#10;&#9;&#9;c0.1-0.3,0.4-0.5,0.7-0.4l35.3,4.1c0.1,0,0.1,0,0.2,0.1l32.7,14.5c0.2,0.1,0.4,0.3,0.4,0.5c0,0.2,0,0.5-0.2,0.6l-22.8,19.9&#10;&#9;&#9;c-0.2,0.1-0.4,0.2-0.6,0.1l-22.8-5.5l-12.2,27.6C253.7,306.2,253.5,306.3,253.2,306.4z M224.7,303l28,1.9l12.3-27.7&#10;&#9;&#9;c0.1-0.3,0.5-0.5,0.8-0.4l23,5.5l21.7-18.9l-31.6-14.1l-34.7-4.1C240.5,254.8,226.9,296.5,224.7,303z"/>
	<path class="st2_adventure-63 targetColor" d="M287,199.9c-0.3-0.9-30.5-10.4-40.2-2.2s-6.2,56.6-6.2,56.6l24.7,2.1l13.8-7.8C279,248.7,296,227.2,287,199.9z&#10;&#9;&#9;" style="fill: rgb(255, 0, 199);"/>
	<path class="st1_adventure-63" d="M279.1,192.3l5.6-0.4c0,0,1.4-19.3-4.9-22.9s-11.4-3.4-14.8-0.2c0,0-3.9-5.7-7.9,0.8s-0.9,22.5-0.9,22.5&#10;&#9;&#9;L279.1,192.3z"/>
	<path class="st3_adventure-63" d="M279.1,193L279.1,193l-22.9-0.1c-0.3,0-0.6-0.2-0.7-0.6c-0.1-0.7-3.1-16.4,1-23c1.4-2.2,3-3.4,4.7-3.4&#10;&#9;&#9;c1.5,0.1,3,0.8,3.9,2c3.7-3,9-2.7,15,0.6c6.6,3.7,5.3,22.7,5.3,23.5c0,0.3-0.3,0.6-0.6,0.6L279.1,193L279.1,193z M256.8,191.5&#10;&#9;&#9;l22.3,0.1l5-0.4c0.3-5.7,0.1-19-4.6-21.6c-5.8-3.3-10.7-3.4-14-0.4c-0.3,0.2-0.7,0.2-1-0.1c0,0,0,0,0,0c0,0-1.4-2-3.2-2h-0.1&#10;&#9;&#9;c-1.2,0-2.4,1-3.5,2.8C254.3,175.5,256.3,188.6,256.8,191.5L256.8,191.5z"/>
	<path class="st1_adventure-63" d="M273,196.8l-0.7,7.9c0,0-1.3,3.5-6.5,1.8s-5.6-5.4-5.6-5.4l2.1-20l4.8-1c1-2,1.6-4.1,1.9-6.3&#10;&#9;&#9;c0,0,0.5,2,1.5,5.5c1.4,0.2,2.8,0.4,4.2,0.5l1.9-3.8c0,0-0.3,4.1,0.1,4.3c1.3,0.4,2.6,0.5,3.9,0.5c-0.2,3.9-0.7,7.7-1.4,11.6&#10;&#9;&#9;C278.2,196.3,273,196.8,273,196.8z"/>
	<path class="st3_adventure-63" d="M268.4,207.6c-0.9,0-1.9-0.2-2.8-0.5c-5.5-1.8-6.1-5.8-6.1-5.9c0-0.1,0-0.1,0-0.2l2.1-20&#10;&#9;&#9;c0-0.3,0.3-0.6,0.6-0.6l4.5-0.9c0.8-1.8,1.4-3.8,1.7-5.8c0.1-0.3,0.3-0.6,0.7-0.6c0.3,0,0.6,0.2,0.7,0.5l1.4,5.1&#10;&#9;&#9;c0.6,0.1,2,0.2,3.2,0.3l1.7-3.4c0.1-0.3,0.5-0.5,0.8-0.4c0.3,0.1,0.5,0.4,0.5,0.7c-0.1,1.2-0.1,2.4-0.1,3.6&#10;&#9;&#9;c1.1,0.3,2.2,0.4,3.3,0.3c0.2,0,0.4,0.1,0.5,0.2c0.1,0.1,0.2,0.3,0.2,0.5c-0.2,3.9-0.7,7.8-1.4,11.7c-0.9,3.6-4.7,4.7-6.2,4.9&#10;&#9;&#9;l-0.6,7.3c0,0.1,0,0.1,0,0.2C272.1,206.7,270.3,207.7,268.4,207.6z M260.9,201.1c0.1,0.5,0.9,3.3,5.2,4.7c4.1,1.3,5.4-0.9,5.6-1.3&#10;&#9;&#9;l0.7-7.7c0-0.3,0.3-0.6,0.6-0.6c0,0,4.8-0.5,5.6-3.9c0.7-3.5,1.1-7.1,1.4-10.7c-1.1,0-2.3-0.2-3.4-0.5c-0.3-0.1-0.6-0.2-0.7-1.7&#10;&#9;&#9;l-0.4,0.9c-0.1,0.3-0.4,0.4-0.7,0.4c-4.1-0.3-4.4-0.5-4.5-0.6c-0.1-0.1-0.2-0.2-0.3-0.4l-0.7-2.7c-0.3,1.3-0.8,2.5-1.4,3.7&#10;&#9;&#9;c-0.1,0.2-0.3,0.3-0.5,0.3l-4.3,0.9L260.9,201.1z M272.3,204.6L272.3,204.6z M270.5,179.3L270.5,179.3z"/>
	<path class="st1_adventure-63" d="M264.5,186.3c-0.1-0.7-0.5-1.4-1-1.9c-0.5-0.5-1.1-0.8-1.8-1.1c-0.3-0.2-0.7-0.3-1.1-0.3&#10;&#9;&#9;c-0.3,0-0.5,0.1-0.8,0.2c-0.6,0.2-1.1,0.7-1.4,1.2c-0.2,0.5-0.2,1-0.2,1.5c0,0.6,0.1,1.1,0.3,1.6c0.4,1.1,1.1,1.9,2.1,2.4&#10;&#9;&#9;c1,0.5,2.2,0.5,3.2,0.2"/>
	<path class="st3_adventure-63" d="M262.5,191.1c-2.1,0-3.9-1.3-4.6-3.3c-0.2-0.6-0.3-1.2-0.3-1.8c-0.1-0.6,0-1.2,0.2-1.8c0.4-0.7,1-1.3,1.7-1.6&#10;&#9;&#9;c0.3-0.2,0.7-0.2,1-0.3c0.5,0,1,0.1,1.4,0.3c0.7,0.3,1.4,0.7,2,1.2c0.7,0.6,1.1,1.4,1.2,2.3c0.1,0.4-0.2,0.7-0.6,0.8c0,0,0,0,0,0&#10;&#9;&#9;c-0.4,0.1-0.7-0.2-0.8-0.6c-0.1-0.6-0.4-1.1-0.8-1.5c-0.5-0.4-1-0.7-1.6-0.9c-0.2-0.1-0.5-0.2-0.8-0.2c-0.2,0-0.3,0.1-0.5,0.1&#10;&#9;&#9;c-0.4,0.2-0.8,0.5-1,0.9c-0.1,0.4-0.2,0.8-0.1,1.2c0,0.5,0.1,1,0.2,1.4c0.3,0.9,0.9,1.6,1.8,2c0.8,0.4,1.8,0.5,2.7,0.1&#10;&#9;&#9;c0.4-0.1,0.8,0.1,0.9,0.4c0.1,0.4-0.1,0.8-0.4,0.9C263.6,191,263,191.1,262.5,191.1z"/>
	<path class="st1_adventure-63" d="M273.6,184c0,0,2.6,4.2,1.9,4.9s-2.5,0.1-2.5,0.1"/>
	<path class="st3_adventure-63" d="M274.4,190c-0.5,0-1-0.1-1.5-0.2c-0.4-0.1-0.6-0.5-0.4-0.9c0.1-0.3,0.5-0.5,0.8-0.4c0.6,0.2,1.1,0.2,1.7,0.1&#10;&#9;&#9;c-0.4-1.5-1.1-2.9-2-4.1c-0.2-0.3-0.1-0.8,0.2-1c0,0,0,0,0,0c0.3-0.2,0.8-0.1,1,0.2c0,0,0,0,0,0c2.9,4.7,2.1,5.5,1.8,5.8&#10;&#9;&#9;C275.6,189.8,275,190,274.4,190z"/>
	<ellipse transform="matrix(0.9856 -0.1692 0.1692 0.9856 -27.1342 48.7181)" class="st3_adventure-63" cx="272.2" cy="183.5" rx="0.7" ry="1"/>
	<ellipse transform="matrix(0.9851 -0.1718 0.1718 0.9851 -27.2266 50.0741)" class="st3_adventure-63" cx="275.8" cy="182.4" rx="0.7" ry="1"/>
	<path class="st1_adventure-63" d="M275.9,191.2c0,0-7.2,3.2-7.6-3.1"/>
	<path class="st3_adventure-63" d="M272.3,192.7c-0.9,0-1.8-0.2-2.6-0.6c-1.3-0.9-2.1-2.4-2-4c0-0.4,0.3-0.7,0.7-0.7s0.7,0.3,0.7,0.7&#10;&#9;&#9;c-0.1,1.1,0.5,2.2,1.4,2.9c1.9,1.1,5.2-0.3,5.2-0.3c0.3-0.2,0.8,0,0.9,0.3c0,0,0,0,0,0c0.2,0.4,0,0.8-0.4,0.9&#10;&#9;&#9;C275,192.4,273.6,192.7,272.3,192.7z"/>
	<path class="st3_adventure-63" d="M273,196.8c0,0-4.1-0.4-5.9-1.8c0,0,1.1,4.8,5.4,6.5L273,196.8z"/>
	<path class="st3_adventure-63" d="M272.5,202.2c-0.1,0-0.2,0-0.2-0.1c-4.6-1.8-5.8-6.8-5.8-7c-0.1-0.3,0.1-0.6,0.3-0.7c0.2-0.2,0.6-0.2,0.8,0&#10;&#9;&#9;c1.3,1,4.4,1.5,5.5,1.6c0.4,0,0.7,0.4,0.6,0.8c0,0,0,0,0,0l-0.5,4.7c0,0.2-0.1,0.4-0.3,0.5C272.7,202.1,272.6,202.2,272.5,202.2z&#10;&#9;&#9; M268.4,196.4c0.7,1.7,2,3.1,3.5,4l0.3-3.1C270.9,197.2,269.6,196.9,268.4,196.4L268.4,196.4z"/>
	<path class="st3_adventure-63" d="M239.8,248.8c2,1.2,4.3,2.1,6.6,2.5c3.7,0.6,6.9,0.3,7.8,0.6s3.4,1.3,3.4,1.3l0.8,6.9c0,0-0.9,2.8-3.4,3&#10;&#9;&#9;c-1.1,0.1-15.3-1.7-17.4-3.3S239.8,248.8,239.8,248.8z"/>
	<path class="st3_adventure-63" d="M255,263.8c-1.8,0-15.5-1.7-17.8-3.5s0.9-9.5,1.9-11.8c0.1-0.2,0.2-0.3,0.4-0.4c0.2-0.1,0.4,0,0.6,0.1&#10;&#9;&#9;c2,1.2,4.1,2,6.4,2.4c1.9,0.3,3.8,0.4,5.7,0.4c0.7,0,1.4,0,2.1,0.1c0.9,0.3,3.4,1.3,3.5,1.4c0.2,0.1,0.4,0.3,0.4,0.6l0.8,6.9&#10;&#9;&#9;c0,0.1,0,0.2,0,0.3c0,0.1-1,3.2-4,3.5L255,263.8z M240.1,249.8c-1.8,4.1-3,8.7-2,9.5c1.9,1.5,15.8,3.3,16.9,3.2&#10;&#9;&#9;c1.3-0.3,2.3-1.2,2.7-2.4l-0.8-6.4c-0.8-0.4-2.3-1-2.9-1.1c-0.6-0.1-1.2-0.1-1.8-0.1c-2,0-4-0.1-5.9-0.4&#10;&#9;&#9;C244.1,251.6,242,250.8,240.1,249.8L240.1,249.8z"/>
	<path class="st3_adventure-63" d="M237.1,250.3c0,0,10.7-6,17.9-22.2c7.1-16.2-1.1-36.3-1.3-35.9c-1.4,0.8-2.8,1.5-4.3,2.1&#10;&#9;&#9;c0,0,6.6,12.5,3.5,24.4s-16.7,27.8-16.6,27.6S237.1,250.3,237.1,250.3z"/>
	<path class="st3_adventure-63" d="M237.1,251c-0.1,0-0.2,0-0.3-0.1c-0.2-0.1-0.3-0.3-0.4-0.5c-0.3-1.6-0.6-3.3-0.7-3.8c-0.1-0.2-0.1-0.4,0-0.6&#10;&#9;&#9;c0-0.1,0.1-0.2,0.2-0.2c0.5-0.6,13.4-15.6,16.4-27.2s-3.4-23.8-3.5-23.9c-0.1-0.2-0.1-0.4,0-0.6c0.1-0.2,0.2-0.3,0.4-0.4&#10;&#9;&#9;c1.4-0.5,2.7-1.2,4-1.9c0.2-0.3,0.6-0.3,0.9-0.1c0,0,0,0,0,0c1.1,0.6,8.6,21,1.6,36.8c-7.1,16.2-17.7,22.2-18.1,22.5&#10;&#9;&#9;C237.4,251,237.2,251,237.1,251z M237.1,246.5c0.1,0.5,0.3,1.3,0.5,2.7c2.6-1.8,10.9-8.1,16.7-21.3c6.2-14,0.6-31.2-0.9-34.7&#10;&#9;&#9;c-0.5,0.3-1.5,0.8-3.1,1.4c1.3,2.8,5.9,13.6,3.2,24.2C251,229.2,239.9,243.5,237.1,246.5L237.1,246.5z"/>
	<path class="st3_adventure-63" d="M279.8,195.5c0,0,5.1,16.9,5.9,28s-6.7,22.1-6.7,22.1c6.7-6.2,10.4-14.9,10.2-24c-0.1-15.6-6.3-26-6.3-26&#10;&#9;&#9;L279.8,195.5z"/>
	<path class="st3_adventure-63" d="M279,246.4c-0.4,0-0.7-0.3-0.7-0.7c0-0.1,0-0.3,0.1-0.4c0.1-0.1,7.3-11.1,6.6-21.7&#10;&#9;&#9;c-0.8-10.8-5.8-27.6-5.9-27.8c-0.1-0.2,0-0.4,0.1-0.6c0.1-0.2,0.3-0.3,0.6-0.3l3.1,0.1c0.2,0,0.5,0.1,0.6,0.3&#10;&#9;&#9;c0.2,0.4,6.3,10.8,6.4,26.4c0.2,9.3-3.6,18.3-10.5,24.5C279.3,246.3,279.2,246.4,279,246.4z M280.7,196.3c1.1,3.7,5,17.7,5.6,27.2&#10;&#9;&#9;c0.5,6.4-1.8,12.8-3.8,17.1c4-5.5,6.1-12.1,6-18.9c0-8.8-2.1-17.5-6-25.4L280.7,196.3z"/>
	<path class="st3_adventure-63" d="M280.7,244.7c-0.3,0.1-5.8,3.6-5.8,3.6s0.3,7,2.2,7.6s8.6-1.7,8.6-1.7L280.7,244.7z"/>
	<path class="st3_adventure-63" d="M277.9,256.7c-0.4,0-0.7,0-1.1-0.1c-2.2-0.7-2.6-6.5-2.7-8.3c0-0.2,0.1-0.5,0.3-0.6c5.6-3.6,5.9-3.6,6-3.6&#10;&#9;&#9;c0.3-0.1,0.6,0.1,0.8,0.4l5,9.5c0.1,0.2,0.1,0.4,0,0.6c-0.1,0.2-0.2,0.3-0.4,0.4C284.9,255.2,280.5,256.7,277.9,256.7z&#10;&#9;&#9; M275.6,248.6c0.2,3,0.9,6.3,1.7,6.6c1.1,0.4,4.8-0.6,7.4-1.5l-4.3-8.1C279.4,246.2,277.5,247.4,275.6,248.6L275.6,248.6z"/>
	<path class="st3_adventure-63" d="M254.4,256.2c0,0,17-2.5,20.4-5.9l0.8,3.9c0,0-13.4,6.5-20.1,5.2L254.4,256.2z"/>
	<path class="st3_adventure-63" d="M257.5,260.2c-0.7,0-1.4-0.1-2.1-0.2c-0.2,0-0.4-0.2-0.5-0.5l-1.1-3.2c-0.1-0.4,0.1-0.8,0.5-0.9&#10;&#9;&#9;c0,0,0.1,0,0.1,0c4.7-0.7,17.3-3,20-5.7c0.2-0.2,0.5-0.2,0.7-0.2c0.2,0.1,0.4,0.3,0.5,0.5l0.8,3.9c0.1,0.3-0.1,0.6-0.4,0.8&#10;&#9;&#9;C275.4,255,264.6,260.2,257.5,260.2z M256,258.7c5.8,0.8,16.5-3.9,18.8-5l-0.5-2.2c-4.3,2.8-15.8,4.8-19.1,5.3L256,258.7z"/>
	<path class="st3_adventure-63" d="M265.6,278.2c-0.1,0-0.2,0-0.3-0.1c-0.3-0.2-0.5-0.6-0.3-0.9c0,0,0,0,0,0c0-0.1,5.2-10.6,5.5-14.5&#10;&#9;&#9;c0-0.4,0.3-0.7,0.7-0.7c0,0,0,0,0,0c0.4,0,0.7,0.3,0.7,0.7c0,0,0,0,0,0c-0.3,4.2-5.4,14.6-5.6,15.1&#10;&#9;&#9;C266.1,278.1,265.9,278.2,265.6,278.2z"/>
	<path class="st1_adventure-63" d="M248.6,194c-0.1,0-0.2,0-0.3-0.1c-0.4-0.2-0.5-0.6-0.3-1c0,0,0,0,0,0c0.4-1,1.3-1.7,2.3-2&#10;&#9;&#9;c1.3-0.3,2.7,0,3.8,0.7c0.3,0.2,0.4,0.7,0.2,1s-0.7,0.4-1,0.2c-0.8-0.5-1.7-0.7-2.7-0.5c-0.6,0.2-1.1,0.7-1.4,1.2&#10;&#9;&#9;C249.1,193.8,248.9,194,248.6,194z"/>
	<path class="st1_adventure-63" d="M258.4,260.8c-0.4,0-0.7-0.3-0.7-0.7l-0.4-4.5c0-0.4,0.3-0.7,0.7-0.8c0.4,0,0.7,0.3,0.8,0.7l0.4,4.5&#10;&#9;&#9;C259.2,260.4,258.9,260.8,258.4,260.8C258.5,260.8,258.5,260.8,258.4,260.8L258.4,260.8z"/>
	<path class="st3_adventure-63" d="M308.3,335.6h-0.1L305,335c-0.4-0.1-0.6-0.4-0.6-0.8s0.4-0.6,0.8-0.6l3.1,0.6c0.4,0.1,0.6,0.4,0.6,0.8&#10;&#9;&#9;c0,0,0,0,0,0C308.9,335.3,308.6,335.6,308.3,335.6z"/>
	<path class="st3_adventure-63" d="M304.5,338.1v-1.4l3.6,0l0,0c0.4,0,0.7,0.3,0.7,0.7c0,0.4-0.3,0.7-0.7,0.7L304.5,338.1z"/>
	<path class="st2_adventure-63 targetColor" d="M241.8,209.4c0,0,27.8,33.1,37.3,28s34.6-30.2,34.6-30.2l-8.3-10.3c0,0-16.3,12.6-28.5,22&#10;&#9;&#9;c-3.4-4.3-27.1-25.9-30.1-21.2S241.8,209.4,241.8,209.4z" style="fill: rgb(255, 0, 199);"/>
	<path class="st3_adventure-63" d="M209.9,347.2c0.4,0.1,15.3,4,15.3,4l-8.8,18.6c0,0-4.8,1.4-5.4,0.8c-0.4-0.3-0.6-0.7-0.8-1.2&#10;&#9;&#9;c-0.7,0.9-1.6,1.6-2.7,1.8c-1.6,0.2-11.6,1.8-12.1,0.4s9.2-6.8,10-9.8C207.2,355.3,209.9,347.2,209.9,347.2z"/>
	<path class="st3_adventure-63" d="M198,372.8c-2.5,0-3-0.5-3.2-1c-0.4-1.1,1-2.2,4.2-4.7c2.3-1.7,5.4-4.1,5.8-5.5c1.7-6.4,4.4-14.5,4.5-14.6&#10;&#9;&#9;c0.1-0.4,0.5-0.6,0.9-0.5c0.4,0.1,11.2,2.9,15.3,4c0.2,0.1,0.4,0.2,0.5,0.4c0.1,0.2,0.1,0.4,0,0.6l-8.7,18.6&#10;&#9;&#9;c-0.1,0.2-0.2,0.3-0.4,0.4c-5.2,1.5-5.8,0.9-6.1,0.6c-0.2-0.2-0.3-0.3-0.4-0.5c-0.7,0.7-1.5,1.1-2.5,1.3l-0.5,0.1&#10;&#9;&#9;C204.1,372.4,201.1,372.7,198,372.8z M196.2,371.3c0.4,0.1,2.5,0.4,10.8-0.8l0.5-0.1c0.9-0.2,1.7-0.8,2.2-1.5&#10;&#9;&#9;c0.2-0.2,0.4-0.3,0.7-0.3c0.3,0,0.5,0.2,0.6,0.5l0,0c0.1,0.3,0.3,0.6,0.6,0.9c1.5-0.1,3-0.4,4.4-0.9l8.3-17.5&#10;&#9;&#9;c-2.9-0.7-11.4-2.9-13.9-3.6c-0.7,2-2.8,8.6-4.2,13.9c-0.5,1.9-3.4,4.1-6.3,6.3C198.5,369.1,197.3,370.2,196.2,371.3L196.2,371.3z"/>
	<path class="st1_adventure-63" d="M235,189c-0.2,0-0.3-0.1-0.5-0.2c-0.3-0.3-0.3-0.7-0.1-1c5.8-7,0.5-15.1,0.4-15.2c-0.2-0.4,0-0.8,0.3-1&#10;&#9;&#9;c0.3-0.2,0.7-0.1,0.9,0.2c0.1,0.1,5.9,9.1-0.5,16.9C235.4,188.9,235.2,189,235,189z"/>
	<path class="st1_adventure-63" d="M228,260.5L228,260.5c-0.5,0-0.8-0.4-0.7-0.8c0,0,0,0,0,0c0-0.2,2.6-24.4,6.4-40.2c1.4-6,1.2-10.3-0.7-12.6&#10;&#9;&#9;c-0.9-1.1-2.3-1.7-3.7-1.7c-0.4,0-0.7-0.3-0.8-0.7c0-0.4,0.3-0.7,0.7-0.8c1.9-0.1,3.7,0.7,4.9,2.2c2.3,2.7,2.6,7.4,1.1,13.9&#10;&#9;&#9;c-3.8,15.7-6.3,39.7-6.3,40C228.7,260.3,228.4,260.6,228,260.5z"/>
	<path class="st3_adventure-63" d="M274.8,238.8c-8.6,0-23.2-16.6-29.1-23.9l-0.2-0.2c-0.2-0.3-0.1-0.7,0.2-1c0.3-0.2,0.6-0.2,0.8,0l0.2,0.3&#10;&#9;&#9;c9.6,11.8,22.2,24.1,28.6,23.4c9.2-1.1,32.7-25.6,32.9-25.8c0.3-0.3,0.7-0.3,1,0c0,0,0,0,0,0c0.3,0.3,0.3,0.7,0,1&#10;&#9;&#9;c-1,1-24.1,25.1-33.8,26.2C275.2,238.8,275,238.8,274.8,238.8z"/>
	<path class="st3_adventure-63" d="M276.9,219.6c-0.2,0-0.4-0.1-0.5-0.3c-0.7-0.9-13.4-11.5-21.7-18.4c-0.3-0.3-0.3-0.7-0.1-1&#10;&#9;&#9;c0.2-0.3,0.7-0.4,1-0.1c0,0,0,0,0,0c2,1.6,18.3,15.1,21.4,18.1l26.2-20c0.3-0.3,0.7-0.2,1,0.1c0.3,0.3,0.2,0.7-0.1,1c0,0,0,0-0.1,0&#10;&#9;&#9;l-26.8,20.4C277.2,219.6,277,219.6,276.9,219.6z"/>
	<path class="st3_adventure-63" d="M295.9,232.6c-0.4,0-0.7-0.3-0.7-0.7c0-0.3,0.2-0.5,0.4-0.7l3.7-1.5c0.4-0.1,0.8,0,0.9,0.4&#10;&#9;&#9;c0.1,0.4,0,0.8-0.4,0.9c0,0,0,0,0,0l-3.7,1.5C296.1,232.6,296,232.6,295.9,232.6z"/>
	<path class="st3_adventure-63" d="M230.3,301.2c-0.1,0-0.1,0-0.2,0c-0.4-0.1-0.6-0.5-0.5-0.9c0,0,0,0,0,0l11.4-35.8c0.1-0.4,0.5-0.6,0.9-0.5&#10;&#9;&#9;c0.4,0.1,0.6,0.5,0.4,0.9l0,0L231,300.7C230.9,301,230.6,301.2,230.3,301.2z"/>
	<path class="st3_adventure-63" d="M287.8,279.3h-0.1l-18.8-4c-0.4-0.1-0.6-0.5-0.5-0.8c0.1-0.4,0.4-0.6,0.8-0.5c0,0,0,0,0,0l18.8,4&#10;&#9;&#9;c0.4,0.1,0.6,0.5,0.5,0.8C288.3,279.1,288.1,279.3,287.8,279.3L287.8,279.3z"/>
	<path class="st1_adventure-63" d="M334.6,221c-0.2,0.1-0.3,0.2-0.4,0.3c-0.2,0.4-0.1,0.9,0.3,1.1c0.4,0.2,0.8,0.3,1.3,0.3c-0.4,0-0.7,0.2-1,0.4&#10;&#9;&#9;c-0.3,0.2-0.4,0.6-0.3,0.9c0.3,0.5,1.2,0.2,1.7,0.6c-0.3,0-0.7,0.1-1,0.3c-0.5,0.2-0.7,0.8-0.5,1.3c0.1,0.2,0.3,0.4,0.6,0.5&#10;&#9;&#9;c0.4,0.2,0.9,0.2,1.3,0.2c-0.6,0.1-1.4,0.6-1.3,1.2s0.7,1,1.3,1.1c0.9,0.2,1.8,0.2,2.7-0.1c0.7-0.2,1.3-0.6,1.6-1.3&#10;&#9;&#9;c0.1-0.4,0.2-0.8,0.2-1.2c0-1.4-0.2-2.8-0.6-4.2c-0.3-1-1-2.4-2.2-2.5C337,220,335.7,220.4,334.6,221z"/>
	<path class="st3_adventure-63" d="M337.7,230.1c-0.4,0-0.9-0.1-1.3-0.1c-0.9-0.1-1.7-0.8-1.9-1.8c0-0.3,0.1-0.6,0.2-0.9c-0.6-0.3-1-1-0.9-1.7&#10;&#9;&#9;c0-0.3,0.2-0.6,0.4-0.8c-0.1-0.1-0.2-0.2-0.3-0.4c-0.2-0.4-0.2-1,0.1-1.4c-0.3-0.3-0.5-0.6-0.6-1c-0.1-0.3,0-0.7,0.2-1&#10;&#9;&#9;c0.2-0.2,0.4-0.4,0.7-0.5l0,0c1.2-0.7,2.6-1.1,4-1.1c1.2,0.1,2.2,1.1,2.8,3c0.5,1.4,0.7,2.9,0.6,4.4c0,0.5-0.1,1-0.3,1.5&#10;&#9;&#9;c-0.4,0.8-1.1,1.4-2,1.6C338.9,230.1,338.3,230.2,337.7,230.1z M334.8,221.8c0,0,0.1,0.1,0.1,0.1c0.3,0.1,0.6,0.2,0.9,0.2&#10;&#9;&#9;c0.4,0,0.7,0.4,0.6,0.8c0,0.3-0.2,0.6-0.5,0.6c-0.2,0-0.5,0.1-0.7,0.2c-0.1,0,0.1,0.1,0.3,0.1c0.4,0,0.7,0.1,1.1,0.3&#10;&#9;&#9;c0.3,0.2,0.4,0.6,0.2,1c-0.1,0.2-0.3,0.3-0.5,0.3c-0.3,0-0.5,0.1-0.8,0.2c-0.1,0-0.2,0.1-0.2,0.2c0,0.1,0.1,0.2,0.3,0.3&#10;&#9;&#9;c0.3,0.1,0.7,0.2,1,0.1c0.4,0,0.7,0.4,0.7,0.7c0,0.3-0.2,0.6-0.5,0.6c-0.4,0.1-0.8,0.3-0.8,0.5s0.4,0.4,0.8,0.5&#10;&#9;&#9;c0.8,0.2,1.5,0.1,2.3-0.1c0.5-0.1,0.9-0.4,1.2-0.9c0.1-0.3,0.2-0.6,0.1-0.9c0-1.4-0.2-2.7-0.6-4c-0.2-0.6-0.7-1.9-1.6-2&#10;&#9;&#9;c-1.1,0-2.2,0.4-3.2,0.9l0,0C334.9,221.7,334.8,221.7,334.8,221.8L334.8,221.8z M334.6,221L334.6,221z"/>
	<path class="st3_adventure-63" d="M298.8,324.8l-2.8,15.1l9.8,1.6l0.1-1.7c1.1,0.3,2.1,0.7,3.1,1.2c1.9,0.8,12.7,1.2,12.7,1.2s2.2-3.1-2-5.7&#10;&#9;&#9;s-7.7-0.6-8.6-1.6s2.4-8.7,2-8.4S298.8,324.8,298.8,324.8z"/>
	<path class="st3_adventure-63" d="M321.6,342.9L321.6,342.9c-1.1,0-11-0.4-12.9-1.2c-0.9-0.4-1.6-0.7-2.2-0.9v0.7c0,0.2-0.1,0.4-0.2,0.5&#10;&#9;&#9;c-0.2,0.1-0.4,0.2-0.6,0.1l-9.8-1.6c-0.2,0-0.4-0.1-0.5-0.3c-0.1-0.2-0.2-0.3-0.1-0.5l2.8-15.1c0.1-0.4,0.4-0.6,0.8-0.6&#10;&#9;&#9;c4.9,0.7,12.9,1.8,13.9,1.7c0.2-0.1,0.5,0,0.6,0.1c0.5,0.4,0.4,0.5-0.3,2.5c-0.5,1.3-1.9,5.3-1.6,6.1c0.5,0.1,1,0.1,1.5,0&#10;&#9;&#9;c2.4-0.3,4.9,0.2,7,1.5c1.4,0.7,2.4,2,2.8,3.5c0.2,1.1,0,2.2-0.6,3.2C322.1,342.8,321.9,343,321.6,342.9z M305.8,339.2&#10;&#9;&#9;c0.1,0,0.1,0,0.2,0c1.1,0.3,2.1,0.7,3.2,1.2c1.2,0.5,7.7,1,12,1.1c0.3-0.6,0.3-1.2,0.2-1.8c-0.3-1.1-1.1-2.1-2.2-2.6&#10;&#9;&#9;c-1.8-1.1-4-1.5-6.1-1.3c-1.1,0.1-2,0.1-2.6-0.5c-0.8-0.8-0.2-3.1,1.3-7.4c0.1-0.2,0.2-0.5,0.3-0.8c-1.5-0.1-4.9-0.5-12.7-1.6&#10;&#9;&#9;l-2.6,13.8l8.3,1.3v-0.9c0-0.2,0.1-0.4,0.3-0.5C305.5,339.2,305.7,339.1,305.8,339.2L305.8,339.2z"/>
</g>
<g id="Rock_adventure-63">
	<path class="st1_adventure-63" d="M135.8,419.2c0,0,3.9-11,8.9-13.4s17-6.1,17-6.1c-2-2.5,0.2-16.5,17-18.4c6.2-0.7,25.1-15,25.1-15&#10;&#9;&#9;s27.1-4.9,31.2-4.1s6.8-10.6,13.3-13.5c8.5-3.7,14.1,5.5,14.1,5.5s11.1-15.9,13.5-16.7c4.9-1.7,50.9,2.9,50.8,7s-1.8,23.1-1.8,23.1&#10;&#9;&#9;s11.6-1,16.1,7.2s18.9,30.7,18.9,30.7l4,8.7v5.1L135.8,419.2z"/>
	<path class="st3_adventure-63" d="M363.8,419.9H135.8c-0.4,0-0.7-0.3-0.7-0.7c0-0.1,0-0.1,0-0.2c0.2-0.5,4.1-11.3,9.3-13.8&#10;&#9;&#9;c4.3-2,13.5-5,16.3-5.9c-0.6-1.7-0.3-4.6,0.8-7.2c1.2-3,5.4-10.1,17.1-11.5c6-0.7,24.5-14.7,24.7-14.9c0.1-0.1,0.2-0.1,0.3-0.1&#10;&#9;&#9;c1.1-0.2,27.2-5,31.4-4.1c1.6,0.3,3.2-2.2,5-5c2.1-3.2,4.4-6.9,7.9-8.4c7.3-3.2,12.6,2.6,14.4,4.9c2.8-3.9,11-15.4,13.3-16.2&#10;&#9;&#9;c4.2-1.4,45.2,2.1,50.9,6.3c0.5,0.3,0.8,0.8,0.9,1.4c-0.1,3.7-1.4,18.6-1.8,22.3c2.8-0.1,11.9,0.3,16,7.6&#10;&#9;&#9;c4.5,8.1,18.8,30.4,18.9,30.6l4,8.7c0,0.1,0.1,0.2,0.1,0.3v5.1C364.6,419.6,364.2,419.9,363.8,419.9&#10;&#9;&#9;C363.8,419.9,363.8,419.9,363.8,419.9z M136.8,418.5h226.4v-4.3l-3.9-8.5c-0.1-0.1-14.4-22.4-18.9-30.6c-4.3-7.8-15.3-6.9-15.5-6.9&#10;&#9;&#9;c-0.2,0-0.4-0.1-0.6-0.2c-0.1-0.1-0.2-0.3-0.2-0.5c0-0.2,1.7-19,1.8-23c-1.1-2.9-44-8.4-49.9-6.4c-1.5,0.5-8.6,9.9-13.1,16.5&#10;&#9;&#9;c-0.1,0.2-0.4,0.3-0.6,0.3c-0.2,0-0.4-0.1-0.6-0.3c-0.2-0.4-5.4-8.6-13.2-5.2c-3.1,1.3-5.3,4.8-7.3,7.9c-2.1,3.3-3.9,6.1-6.5,5.6&#10;&#9;&#9;c-3.2-0.6-23.1,2.7-30.8,4.1c-1.8,1.4-19.1,14.3-25.3,15c-10.6,1.2-14.6,7.2-16,10.6c-1.3,3.2-1.1,5.9-0.5,6.7&#10;&#9;&#9;c0.1,0.2,0.2,0.4,0.1,0.6c-0.1,0.2-0.2,0.4-0.5,0.5c-0.1,0-12,3.8-16.9,6.1C141.1,408.3,137.8,415.8,136.8,418.5z"/>
	<path class="st3_adventure-63" d="M262.3,354.1c0,0-16.9,31.1-22.4,42.1l16.8-47.4L262.3,354.1z"/>
	<path class="st3_adventure-63" d="M239.9,397c-0.1,0-0.2,0-0.3-0.1c-0.3-0.1-0.5-0.5-0.4-0.9l16.8-47.4c0.1-0.2,0.3-0.4,0.5-0.5&#10;&#9;&#9;c0.2-0.1,0.5,0,0.6,0.2l5.6,5.2c0.2,0.2,0.3,0.6,0.1,0.8c-0.2,0.3-17,31.3-22.4,42.1C240.4,396.8,240.2,397,239.9,397z M257,350.1&#10;&#9;&#9;l-13,36.6c6.5-12.3,15.8-29.4,17.4-32.5L257,350.1z"/>
	<path class="st3_adventure-63" d="M326.6,403c-0.3,0-0.6-0.2-0.7-0.5c-4.2-11.7-2-34.1-1.9-35c0-0.4,0.4-0.7,0.7-0.6c0,0,0,0,0,0&#10;&#9;&#9;c0.4,0,0.7,0.4,0.6,0.8c0,0.2-2.3,23,1.8,34.4c0.1,0.4-0.1,0.8-0.4,0.9C326.8,403,326.7,403,326.6,403z"/>
	<path class="st3_adventure-63" d="M306.2,408c-0.4,0-0.7-0.3-0.7-0.7c0-0.1-0.1-3.8,2.8-15.1s8.3-32.5,8.4-32.7c0.1-0.4,0.5-0.6,0.9-0.5&#10;&#9;&#9;c0.4,0.1,0.6,0.5,0.5,0.9c0,0.2-5.4,21.5-8.4,32.7c-2.9,11-2.8,14.6-2.8,14.7C307,407.7,306.7,408,306.2,408&#10;&#9;&#9;C306.3,408,306.3,408,306.2,408L306.2,408z"/>
	<path class="st3_adventure-63" d="M229.3,384.1c-0.1,0-0.1,0-0.2,0c-0.4-0.1-0.6-0.5-0.5-0.9c0.9-3,5.9-10.7,6.1-11c0.2-0.3,0.6-0.5,0.9-0.3&#10;&#9;&#9;c0.3,0.2,0.5,0.6,0.3,0.9c0,0,0,0.1-0.1,0.1c-0.1,0.1-5.1,7.9-5.9,10.7C229.9,384,229.6,384.2,229.3,384.1z"/>
	<path class="st3_adventure-63" d="M244,419c0,0,5-10.7,8.5-15.5s8.2-14.3,8.2-14.3s-3,11.3-4,18.1c-0.6,4,0,8.1,1.9,11.7H244z"/>
	<path class="st3_adventure-63" d="M258.6,419.6H244c-0.2,0-0.5-0.1-0.6-0.3c-0.1-0.2-0.1-0.5-0.1-0.7c0.2-0.4,5-10.8,8.6-15.6s8-14.1,8.1-14.2&#10;&#9;&#9;c0.2-0.4,0.6-0.5,0.9-0.3c0.3,0.1,0.5,0.5,0.4,0.8c0,0.1-3,11.4-4,18c-0.6,3.8,0,7.8,1.8,11.2c0.1,0.2,0.1,0.5,0,0.7&#10;&#9;&#9;C259,419.5,258.8,419.6,258.6,419.6z M245.1,418.3h12.3c-1.5-3.5-2-7.3-1.4-11.1c0.5-3.6,1.6-8.4,2.5-12.2c-1.6,3.1-3.4,6.1-5.4,9&#10;&#9;&#9;C250.3,407.7,246.5,415.5,245.1,418.3L245.1,418.3z"/>
	<path class="st3_adventure-63" d="M144.7,405.8c0,0,16.8-1.8,20.3-1.8s54.6,8.1,53.2,7.1s-50.7-13.8-52.8-14.9s-1.5-7.1-1.5-7.1&#10;&#9;&#9;s-4.6,4.5-2.1,10.5C154.6,400.6,144.7,405.8,144.7,405.8z"/>
	<path class="st3_adventure-63" d="M217.7,411.9c-2.1,0-8.6-0.9-29.2-3.9c-10.8-1.6-22-3.2-23.5-3.2c-3.5,0-20.1,1.8-20.2,1.8&#10;&#9;&#9;c-0.4,0-0.7-0.3-0.8-0.6c0-0.3,0.1-0.5,0.4-0.7c0.4-0.2,9.4-4.9,16.4-6.1c-1.9-5.9,2.6-10.4,2.6-10.5c0.2-0.2,0.5-0.2,0.8-0.1&#10;&#9;&#9;c0.3,0.1,0.4,0.4,0.4,0.7c-0.2,2.3,0,5.8,1.1,6.4c0.9,0.5,12.3,3.5,23.4,6.5c19.5,5.3,28.8,7.8,29.5,8.4c0.3,0.2,0.4,0.6,0.2,0.9&#10;&#9;&#9;C218.7,411.7,218.7,411.9,217.7,411.9z M165,403.4c1.6,0,11.8,1.5,23.7,3.2c8.1,1.2,17.4,2.5,23.4,3.3c-5.9-1.7-15.3-4.2-23.4-6.4&#10;&#9;&#9;c-14.1-3.8-22.7-6.1-23.6-6.6c-1.6-0.8-2-3.5-2-5.5c-1.5,2.4-1.8,5.4-0.7,8.1c0.1,0.2,0.1,0.4,0,0.6c-0.1,0.2-0.3,0.3-0.5,0.3&#10;&#9;&#9;c-4.3,0.5-9.7,2.8-13.2,4.4C153.8,404.2,162.5,403.4,165,403.4z"/>
	<path class="st3_adventure-63" d="M329.5,367.8c-0.1,1.2-3.8,9.6-5,24.4l0.2-24.6L329.5,367.8z"/>
	<path class="st3_adventure-63" d="M324.6,392.9L324.6,392.9c-0.4,0-0.7-0.3-0.7-0.7l0.2-24.6c0-0.2,0.1-0.4,0.2-0.5c0.1-0.1,0.3-0.2,0.5-0.2&#10;&#9;&#9;l4.7,0.2c0.4,0,0.7,0.3,0.7,0.7c0,0,0,0,0,0c-0.1,0.7-0.3,1.4-0.6,2.1c-2.3,7.2-3.8,14.7-4.4,22.3&#10;&#9;&#9;C325.3,392.6,325,392.9,324.6,392.9z M325.5,368.3l-0.1,12.6c0.7-3.9,1.7-7.7,3-11.4c0.1-0.4,0.2-0.8,0.3-1.1L325.5,368.3z"/>
	<path class="st3_adventure-63" d="M278.4,348.9c0,0-3.8,5.5-4.9,9.1"/>
	<path class="st3_adventure-63" d="M273.5,358.7h-0.2c-0.4-0.1-0.6-0.5-0.5-0.9c1.1-3.6,4.8-9,5-9.3c0.2-0.3,0.6-0.4,1-0.2c0,0,0,0,0,0&#10;&#9;&#9;c0.3,0.2,0.4,0.6,0.2,0.9c0,0,0,0,0,0.1c0,0.1-3.8,5.5-4.8,8.9C274.1,358.5,273.8,358.7,273.5,358.7z"/>
	<path class="st3_adventure-63" d="M187.3,384.9c0,0-5,1.1-7.1,4.2"/>
	<path class="st3_adventure-63" d="M180.2,389.9c-0.1,0-0.3,0-0.4-0.1c-0.3-0.2-0.4-0.6-0.2-1c0,0,0,0,0,0c2.3-3.4,7.3-4.5,7.5-4.5&#10;&#9;&#9;c0.4-0.1,0.7,0.1,0.8,0.5c0,0,0,0,0,0c0.1,0.4-0.2,0.7-0.5,0.8c0,0,0,0,0,0c0,0-4.7,1-6.6,4C180.7,389.8,180.5,389.9,180.2,389.9z"/>
</g>
</svg>