<svg id="_0464_artificial_intelligence_1" xmlns="http://www.w3.org/2000/svg" xmlns:xlink="http://www.w3.org/1999/xlink" viewBox="0 0 500 500" data-imageid="artificial-intelligence-1-51" imageName="Artificial Intelligence 1" class="illustrations_image" style="width: 144px;"><defs><style>.cls-1_artificial-intelligence-1-51{stroke-linecap:round;stroke-linejoin:round;}.cls-1_artificial-intelligence-1-51,.cls-2_artificial-intelligence-1-51{fill:none;stroke:#231f20;stroke-width:1.48px;}.cls-3_artificial-intelligence-1-51{fill:url(#linear-gradient);}.cls-3_artificial-intelligence-1-51,.cls-4_artificial-intelligence-1-51,.cls-5_artificial-intelligence-1-51,.cls-6_artificial-intelligence-1-51,.cls-7_artificial-intelligence-1-51,.cls-8_artificial-intelligence-1-51,.cls-9_artificial-intelligence-1-51,.cls-10_artificial-intelligence-1-51,.cls-11_artificial-intelligence-1-51,.cls-12_artificial-intelligence-1-51,.cls-13_artificial-intelligence-1-51,.cls-14_artificial-intelligence-1-51,.cls-15_artificial-intelligence-1-51,.cls-16_artificial-intelligence-1-51,.cls-17_artificial-intelligence-1-51,.cls-18_artificial-intelligence-1-51,.cls-19_artificial-intelligence-1-51{stroke-width:0px;}.cls-4_artificial-intelligence-1-51{opacity:.18;}.cls-4_artificial-intelligence-1-51,.cls-5_artificial-intelligence-1-51,.cls-6_artificial-intelligence-1-51,.cls-7_artificial-intelligence-1-51{isolation:isolate;}.cls-4_artificial-intelligence-1-51,.cls-7_artificial-intelligence-1-51,.cls-19_artificial-intelligence-1-51{fill:#68e1fd;}.cls-5_artificial-intelligence-1-51{fill:#fff;opacity:.55;}.cls-2_artificial-intelligence-1-51{stroke-miterlimit:10;}.cls-6_artificial-intelligence-1-51{fill:#282328;opacity:.16;}.cls-7_artificial-intelligence-1-51,.cls-20_artificial-intelligence-1-51{opacity:.82;}.cls-8_artificial-intelligence-1-51{fill:url(#linear-gradient-4-artificial-intelligence-1-51);}.cls-9_artificial-intelligence-1-51{fill:url(#linear-gradient-2-artificial-intelligence-1-51);}.cls-10_artificial-intelligence-1-51{fill:url(#linear-gradient-3-artificial-intelligence-1-51);}.cls-11_artificial-intelligence-1-51{fill:url(#linear-gradient-8-artificial-intelligence-1-51);}.cls-12_artificial-intelligence-1-51{fill:url(#linear-gradient-9-artificial-intelligence-1-51);}.cls-13_artificial-intelligence-1-51{fill:url(#linear-gradient-7-artificial-intelligence-1-51);}.cls-14_artificial-intelligence-1-51{fill:url(#linear-gradient-5-artificial-intelligence-1-51);}.cls-15_artificial-intelligence-1-51{fill:url(#linear-gradient-6-artificial-intelligence-1-51);}.cls-16_artificial-intelligence-1-51{fill:#231f20;}.cls-17_artificial-intelligence-1-51{fill:#e0a194;}.cls-18_artificial-intelligence-1-51{fill:#ffbbab;}</style><linearGradient id="linear-gradient-artificial-intelligence-1-51" x1="335.55" y1="3109.29" x2="244.75" y2="3066.85" gradientTransform="translate(-71.3 3355.49) scale(1 -1)" gradientUnits="userSpaceOnUse"><stop offset="0" stop-color="#231f20"/><stop offset=".13" stop-color="#231f20" stop-opacity=".69"/><stop offset=".25" stop-color="#231f20" stop-opacity=".32"/><stop offset="1" stop-color="#231f20" stop-opacity="0"/></linearGradient><linearGradient id="linear-gradient-2-artificial-intelligence-1-51" x1="326.92" y1="3200.81" x2="201.47" y2="3207.05" xlink:href="#linear-gradient-artificial-intelligence-1-51"/><linearGradient id="linear-gradient-3-artificial-intelligence-1-51" x1="233.58" y1="3206.03" x2="285.37" y2="3136.45" gradientTransform="translate(-31 3367.76) scale(1 -1)" xlink:href="#linear-gradient-artificial-intelligence-1-51"/><linearGradient id="linear-gradient-4-artificial-intelligence-1-51" x1="343.21" y1="3149.31" x2="228.08" y2="3144.61" xlink:href="#linear-gradient-artificial-intelligence-1-51"/><linearGradient id="linear-gradient-5-artificial-intelligence-1-51" x1="218.25" y1="3177.96" x2="329.64" y2="3108.22" gradientTransform="translate(-31 3367.76) scale(1 -1)" xlink:href="#linear-gradient-artificial-intelligence-1-51"/><linearGradient id="linear-gradient-6-artificial-intelligence-1-51" x1="322.84" y1="3223.16" x2="218.56" y2="3174.44" xlink:href="#linear-gradient-artificial-intelligence-1-51"/><linearGradient id="linear-gradient-7-artificial-intelligence-1-51" x1="233.51" y1="3141.88" x2="303.72" y2="3154.06" xlink:href="#linear-gradient-artificial-intelligence-1-51"/><linearGradient id="linear-gradient-8-artificial-intelligence-1-51" x1="238.26" y1="3079.79" x2="383.01" y2="3104.89" xlink:href="#linear-gradient-artificial-intelligence-1-51"/><linearGradient id="linear-gradient-9-artificial-intelligence-1-51" x1="330.1" y1="2967.38" x2="343.15" y2="3367.98" gradientTransform="translate(-71.3 3355.49) scale(1 -1)" gradientUnits="userSpaceOnUse"><stop offset="0" stop-color="#fff"/><stop offset=".13" stop-color="#fff" stop-opacity=".69"/><stop offset=".15" stop-color="#fff" stop-opacity=".61"/><stop offset=".2" stop-color="#fff" stop-opacity=".47"/><stop offset=".25" stop-color="#fff" stop-opacity=".34"/><stop offset=".3" stop-color="#fff" stop-opacity=".23"/><stop offset=".36" stop-color="#fff" stop-opacity=".15"/><stop offset=".44" stop-color="#fff" stop-opacity=".08"/><stop offset=".52" stop-color="#fff" stop-opacity=".03"/><stop offset=".65" stop-color="#fff" stop-opacity="0"/><stop offset="1" stop-color="#fff" stop-opacity="0"/></linearGradient></defs><g id="background_artificial-intelligence-1-51"><path class="cls-4_artificial-intelligence-1-51 targetColor" d="M485.98,358.72c-2.14,22.27-19.97,39.84-38.75,51.97-11.81,7.66-24.72,14.09-38.51,17.06-19.45,4.16-39.64,1.24-59.51,2.04-48.52,1.95-94.72,26.02-143.24,24.07-32.69-1.33-63.87-14.49-91.87-31.39-11.91-7.19-23.88-15.6-30.24-28.04-4-7.79-5.49-16.63-8.96-24.67-13.4-30.99-53.37-44.98-63.94-77.03-6.39-19.38-.19-40.57,7.73-59.36,8.44-20.07,19.18-39.74,35.73-53.93,4.74-4,9.77-7.66,15.04-10.95,15.58-10,32.46-18.34,43.78-32.83,13.37-17.12,16.62-39.93,26.56-59.28,18.15-35.52,60.83-56.68,100.11-49.67,9.77,1.74,19.79-2.18,29.7-2.58,35.92.1,71.78,2.69,107.34,7.76,28.32,4.03,59.59,11.7,74.86,35.87,8.41,13.28,10.46,29.6,11.26,45.33,1.57,31.3-1.05,62.67-7.78,93.28-.49,2.26-1,4.52-1.48,6.77-3.84,16.62-7.89,33.51-4.91,50.17,6.09,34.07,40.39,60.93,37.08,95.41Z" style="fill: rgb(255, 0, 199);"/></g><g id="character_artificial-intelligence-1-51"><path class="cls-19_artificial-intelligence-1-51 targetColor" d="M240.42,300.44h-6.4c-17.61,0-31.9-14.26-31.9-31.87h0v-36.43h47.04l-8.74,68.31Z" style="fill: rgb(255, 0, 199);"/><path class="cls-3_artificial-intelligence-1-51" d="M249.17,232.13l-8.75,68.31h-6.4c-17.61,0-31.89-14.28-31.89-31.89h0v-36.42h47.04Z"/><path class="cls-19_artificial-intelligence-1-51 targetColor" d="M228.63,127.21h43.58v52.31h-85.76v-10.12c0-23.3,18.89-42.19,42.19-42.19h0Z" style="fill: rgb(255, 0, 199);"/><path class="cls-9_artificial-intelligence-1-51" d="M272.2,127.21v52.31h-85.78v-10.12c0-23.3,18.89-42.19,42.19-42.19h43.59Z"/><path class="cls-18_artificial-intelligence-1-51" d="M300.24,207.07s8.46-10.11,16.1-6.49c7.64,3.62-3.82,21.6-4.43,27.92-.61,6.32-8.34,15.05-14.27,11.81-5.93-3.25,2.6-33.23,2.6-33.23Z"/><path class="cls-18_artificial-intelligence-1-51" d="M303.41,183.63s-1.71,90.26-22.27,105.4c-20.56,15.14-40.73,11.41-40.73,11.41v-143.87s54.35-1.77,63,27.06Z"/><path class="cls-16_artificial-intelligence-1-51" d="M309.64,138.69c-1.48-.15-2.67,1.48-2.7,2.95.15,1.51.65,2.96,1.48,4.24,3.81,7.81,4.88,16.59,4.63,25.17-.24,7.94-2.82,16.23-2.11,24.08.19,2.2.63,4.56-.41,6.51-.86,1.26-1.93,2.36-3.16,3.26-4.21,3.79-6.15,9.43-7.94,14.76-.62-3.97.13-8.01.69-11.98.56-3.97.94-7.98,1.12-11.98.1-2.24,1.34-9.47,0-11.24-1.62-2.18-5.19.53-7.56,1.33-.8.27-9.74,2.54-9.77,2.29l-.86-12.32-22.67,4.94c.13-2.52,0-5.65-2.35-6.73-1.29-.41-2.67-.41-3.95,0l-13.93,2.7c1.59-4.69-2.23-12.82-2.58-17.71-.66-9.12,2.32-15.21,2.2-24.35,0-4.85-2.46-20.08,2.6-22.61,5.06-2.52,17.24,1.77,22.34,3.1,7.77,2.04,15.31,4.91,22.47,8.54,8.07,4.08,15.6,9.14,22.44,15.05Z"/><rect class="cls-19_artificial-intelligence-1-51 targetColor" x="199.23" y="177.87" width="41.19" height="14.06" style="fill: rgb(255, 0, 199);"/><rect class="cls-10_artificial-intelligence-1-51" x="199.23" y="177.87" width="41.19" height="14.06"/><path class="cls-19_artificial-intelligence-1-51 targetColor" d="M189.64,184.89h50.78v47.22h-50.78c-4.46,0-8.07-3.61-8.07-8.07h0v-31.08c0-4.46,3.61-8.07,8.07-8.07h0Z" style="fill: rgb(255, 0, 199);"/><path class="cls-8_artificial-intelligence-1-51" d="M240.42,184.89v47.22h-50.78c-4.46,0-8.07-3.61-8.07-8.07,0,0,0,0,0-.01v-31.06c0-4.46,3.61-8.07,8.07-8.07h50.78Z"/><polygon class="cls-19_artificial-intelligence-1-51 targetColor" points="240.65 247.68 232.54 247.68 238.46 219.69 240.65 219.69 240.65 247.68" style="fill: rgb(255, 0, 199);"/><rect class="cls-19_artificial-intelligence-1-51 targetColor" x="221.94" y="252.49" width="18.47" height="26.33" style="fill: rgb(255, 0, 199);"/><path class="cls-2_artificial-intelligence-1-51" d="M258.73,217.51c1.27.98,2.82,1.53,4.43,1.56,6.01.73,12.08.82,18.11.25"/><path class="cls-16_artificial-intelligence-1-51" d="M289.41,198.93c-4.22.56-8.44,1.21-12.63,1.98-3.39.51-6.71,1.4-9.9,2.66-1.95.84-6.12,4.19-8.28,3.35s-.81-3.67.68-4.43c2.61-1.48,6.32-1.82,9.19-2.36,3.22-.59,6.47-1,9.74-1.21,3.73-.26,7.47-.26,11.2.01Z"/><path class="cls-1_artificial-intelligence-1-51" d="M240.42,267.65c5.67-.15,11.31-.87,16.84-2.14"/><path class="cls-1_artificial-intelligence-1-51" d="M246.93,233.66l.81,5.5c.22,1.09.22,2.2,0,3.29-.33,1.07-.95,2.02-1.8,2.74-1.46,1.34-3.3,2.21-5.27,2.48"/><circle class="cls-14_artificial-intelligence-1-51" cx="218.59" cy="209.42" r="10.71"/><circle class="cls-19_artificial-intelligence-1-51 targetColor" cx="218.59" cy="209.42" r="6.54" style="fill: rgb(255, 0, 199);"/><path class="cls-15_artificial-intelligence-1-51" d="M239.39,127.21v1.86c-44.11.49-45.58,50.45-45.58,50.45h-7.38v-10.12c0-23.3,18.89-42.19,42.19-42.19h10.77Z"/><path class="cls-13_artificial-intelligence-1-51" d="M194.3,184.89v47.22h-4.66c-4.46,0-8.07-3.61-8.07-8.07,0,0,0,0,0-.01v-31.06c0-4.46,3.61-8.07,8.07-8.07h4.66Z"/><path class="cls-11_artificial-intelligence-1-51" d="M240.42,292.82v7.61h-6.4c-17.61,0-31.89-14.28-31.89-31.89h0v-36.42h33.7l-.75,3.59h-27.2s-4.19,48.95,11.95,53.12c16.14,4.18,20.59,3.98,20.59,3.98Z"/><path class="cls-17_artificial-intelligence-1-51" d="M308.56,209.38c.74-.99,1.93-1.54,3.16-1.48.99.25,1.76,1.01,2.02,1.99.25.96.28,1.97.1,2.95-.79,4.58-2.16,9.04-4.07,13.28-1.59,3.91-3.31,8.01-6.64,10.61-1.27.97-3.07,1.7-4.43.83-4.07-2.66-1.56-10.93,1.12-13.66,1.93-1.95,3.78-2.82,4.83-5.49,1.3-3.32,1.37-6.29,3.91-9.03Z"/></g><g id="machine_artificial-intelligence-1-51"><ellipse class="cls-6_artificial-intelligence-1-51" cx="258.69" cy="390.7" rx="126.51" ry="36.55"/><ellipse class="cls-19_artificial-intelligence-1-51 targetColor" cx="258.69" cy="372.08" rx="113.73" ry="26.83" style="fill: rgb(255, 0, 199);"/><path class="cls-12_artificial-intelligence-1-51" d="M455.29,206.39c-.49,2.26-1,4.52-1.48,6.77l-77.35,159.59c-3.06,6.33-8.45,11.22-15.05,13.63-30.9,11.32-124.88,39.65-206.68,1.17-6.55-3.1-11.58-8.71-13.96-15.55l-71.32-203.52c15.58-10,32.46-18.34,43.78-32.83,13.37-17.12,16.62-39.93,26.56-59.28,18.15-35.52,60.83-56.68,100.11-49.67,9.77,1.74,19.79-2.18,29.7-2.58,35.92.1,71.78,2.69,107.34,7.76,28.32,4.03,59.59,11.7,74.86,35.87,8.41,13.28,10.46,29.6,11.26,45.33,1.57,31.31-1.05,62.69-7.78,93.3Z"/></g><g id="technology_pattern_artificial-intelligence-1-51"><path class="cls-7_artificial-intelligence-1-51 targetColor" d="M435.31,137.93c.02,10.29-8.31,18.65-18.6,18.67-7.93.02-15-4.99-17.63-12.48-.71-1.99-1.07-4.09-1.06-6.2.29-10.3,8.87-18.41,19.17-18.12,9.89.28,17.84,8.23,18.12,18.12Z" style="fill: rgb(255, 0, 199);"/><path class="cls-5_artificial-intelligence-1-51" d="M429.68,129.84c0,10.29-8.35,18.64-18.64,18.63-4.37,0-8.61-1.54-11.96-4.35-.71-1.99-1.07-4.09-1.06-6.2.01-10.3,8.37-18.64,18.67-18.63,4.36,0,8.58,1.54,11.93,4.33.71,1.99,1.07,4.1,1.06,6.21Z"/><path class="cls-7_artificial-intelligence-1-51 targetColor" d="M388.59,162.69c.02,5.14-4.13,9.33-9.27,9.35-3.98.02-7.53-2.5-8.84-6.25-.36-.99-.54-2.04-.53-3.1-.2-5.15,3.8-9.48,8.95-9.69,5.15-.2,9.48,3.8,9.69,8.95,0,.25,0,.49,0,.74h0Z" style="fill: rgb(255, 0, 199);"/><path class="cls-5_artificial-intelligence-1-51" d="M385.81,158.64c0,5.15-4.19,9.32-9.34,9.31-2.18,0-4.29-.77-5.96-2.17-.36-.99-.54-2.04-.53-3.1,0-5.15,4.18-9.32,9.33-9.32,2.18,0,4.3.77,5.97,2.17.35,1,.53,2.05.53,3.11Z"/><path class="cls-7_artificial-intelligence-1-51 targetColor" d="M212.6,79.12c-.04,7.38-6.06,13.34-13.44,13.3-7.38-.04-13.34-6.06-13.3-13.44.04-7.38,6.06-13.34,13.44-13.3,3.11.02,6.12,1.12,8.5,3.11,3.06,2.56,4.82,6.34,4.8,10.33Z" style="fill: rgb(255, 0, 199);"/><path class="cls-5_artificial-intelligence-1-51" d="M208.56,73.32c0,7.38-6,13.36-13.39,13.35-3.13,0-6.16-1.1-8.56-3.11-2.44-6.98,1.23-14.61,8.2-17.06,1.42-.5,2.91-.75,4.41-.75,3.14,0,6.17,1.1,8.57,3.11.51,1.43.76,2.94.75,4.46Z"/><path class="cls-7_artificial-intelligence-1-51 targetColor" d="M381.99,247.68c0,5.3-4.29,9.59-9.59,9.59-5.3,0-9.59-4.29-9.59-9.59s4.29-9.59,9.59-9.59c0,0,0,0,.01,0,5.29.02,9.57,4.3,9.58,9.59Z" style="fill: rgb(255, 0, 199);"/><path class="cls-5_artificial-intelligence-1-51" d="M379.1,243.52c0,5.3-4.29,9.6-9.58,9.6-2.25,0-4.42-.78-6.15-2.22-1.76-5,.86-10.47,5.86-12.23,1.02-.36,2.1-.54,3.19-.55,2.25,0,4.42.79,6.14,2.24.37,1.01.55,2.08.55,3.16Z"/><path class="cls-7_artificial-intelligence-1-51 targetColor" d="M96.19,252.95c.03,7.38-5.93,13.38-13.3,13.4-5.71.02-10.8-3.59-12.67-8.98-.51-1.42-.77-2.92-.77-4.43,0-7.38,5.99-13.37,13.37-13.37s13.37,5.99,13.37,13.37Z" style="fill: rgb(255, 0, 199);"/><path class="cls-5_artificial-intelligence-1-51" d="M92.16,247.15c0,7.38-5.96,13.36-13.34,13.37h-.03c-3.14,0-6.17-1.11-8.57-3.13-.51-1.42-.77-2.92-.77-4.43.02-7.39,6.03-13.37,13.42-13.35,3.12,0,6.13,1.1,8.52,3.09.51,1.43.77,2.93.77,4.44Z"/><path class="cls-7_artificial-intelligence-1-51 targetColor" d="M80.8,209.55c0,3.69-3,6.68-6.69,6.68-2.83,0-5.35-1.79-6.3-4.45-.25-.72-.38-1.47-.38-2.23,0-3.69,3-6.68,6.69-6.68,3.69,0,6.68,2.99,6.68,6.68Z" style="fill: rgb(255, 0, 199);"/><path class="cls-5_artificial-intelligence-1-51" d="M78.79,206.73c-.02,3.7-3.03,6.68-6.73,6.67-1.55,0-3.05-.55-4.25-1.54-.25-.72-.38-1.47-.38-2.23,0-3.69,3-6.68,6.69-6.68,1.57,0,3.09.55,4.29,1.56.26.71.39,1.47.38,2.23Z"/><path class="cls-7_artificial-intelligence-1-51 targetColor" d="M141.42,180.76c0,3.69-3,6.68-6.69,6.68-2.83,0-5.35-1.79-6.3-4.45-.26-.71-.39-1.47-.38-2.23,0-3.69,3-6.67,6.68-6.67,3.69,0,6.68,2.98,6.68,6.67Z" style="fill: rgb(255, 0, 199);"/><path class="cls-5_artificial-intelligence-1-51" d="M139.4,177.87c0,3.68-2.97,6.68-6.65,6.69-1.58,0-3.1-.55-4.31-1.57-.26-.71-.39-1.47-.38-2.23,0-3.69,3-6.67,6.68-6.67,1.57,0,3.08.54,4.28,1.55.26.71.39,1.47.38,2.23Z"/><g class="cls-20_artificial-intelligence-1-51"><polygon class="cls-19_artificial-intelligence-1-51 targetColor" points="95.13 248.91 93.72 248.41 107.32 210.25 79.41 208.84 79.49 207.37 109.38 208.87 95.13 248.91" style="fill: rgb(255, 0, 199);"/></g><polygon class="cls-19_artificial-intelligence-1-51 targetColor" points="127.75 210.29 108.35 210.29 108.35 208.81 126.62 208.81 133.02 184.7 134.45 185.09 127.75 210.29" style="fill: rgb(255, 0, 199);"/><path class="cls-7_artificial-intelligence-1-51 targetColor" d="M338.27,330.1c1.87-1.39,4.52-.99,5.9.88,1.1,1.49,1.1,3.53,0,5.02-.27.39-.62.73-1.02,1-1.92,1.32-4.55.83-5.87-1.09-1.31-1.91-.84-4.52,1.06-5.84l-.07.03Z" style="fill: rgb(255, 0, 199);"/><path class="cls-5_artificial-intelligence-1-51" d="M337.5,332.16c1.92-1.32,4.55-.84,5.87,1.08.56.81.81,1.79.73,2.77-.27.39-.62.73-1.02,1-1.9,1.33-4.53.87-5.86-1.04-.57-.82-.84-1.82-.74-2.81.27-.39.62-.73,1.02-1Z"/><path class="cls-7_artificial-intelligence-1-51 targetColor" d="M335.29,299.06c1.91-1.32,4.53-.84,5.85,1.07,1.01,1.46.99,3.39-.04,4.83-.27.39-.62.73-1.02,1-1.97,1.24-4.58.64-5.82-1.33-1.16-1.85-.72-4.28,1.02-5.6v.03Z" style="fill: rgb(255, 0, 199);"/><path class="cls-5_artificial-intelligence-1-51" d="M334.5,301.18c1.9-1.34,4.54-.89,5.88,1.02,0,.01.01.02.02.03.56.82.81,1.8.72,2.79-.27.39-.62.73-1.02,1-1.92,1.32-4.55.84-5.87-1.08-.56-.81-.81-1.79-.73-2.77.27-.39.6-.72.99-.99Z"/><g class="cls-20_artificial-intelligence-1-51"><polygon class="cls-19_artificial-intelligence-1-51 targetColor" points="343.37 332.43 342.89 331.04 370.66 320.99 360.96 305.41 387.21 298.31 387.6 299.73 363.27 306.31 372.87 321.76 343.37 332.43" style="fill: rgb(255, 0, 199);"/></g><polygon class="cls-19_artificial-intelligence-1-51 targetColor" points="361.51 306.28 355.06 296.98 340.44 302.27 339.94 300.87 355.62 295.21 362.72 305.44 361.51 306.28" style="fill: rgb(255, 0, 199);"/><path class="cls-7_artificial-intelligence-1-51 targetColor" d="M388.2,290.49c3.84-2.68,9.12-1.74,11.79,2.09,2.68,3.84,1.74,9.12-2.09,11.79-3.84,2.68-9.12,1.74-11.79-2.09-1.14-1.64-1.67-3.62-1.49-5.61.22-2.49,1.53-4.75,3.59-6.18Z" style="fill: rgb(255, 0, 199);"/><path class="cls-5_artificial-intelligence-1-51" d="M386.65,294.67c3.83-2.65,9.09-1.69,11.74,2.14,1.12,1.63,1.64,3.59,1.46,5.56-2.74,3.77-8.02,4.61-11.79,1.87-2.38-1.73-3.68-4.56-3.45-7.49.55-.81,1.24-1.51,2.04-2.08Z"/><g class="cls-20_artificial-intelligence-1-51"><polygon class="cls-19_artificial-intelligence-1-51 targetColor" points="376.24 302.24 358.59 271.94 378.27 263.5 373.36 254.54 374.64 253.84 380.34 264.23 360.71 272.64 377.52 301.5 376.24 302.24" style="fill: rgb(255, 0, 199);"/></g><path class="cls-7_artificial-intelligence-1-51 targetColor" d="M383.58,104.92c0,5.29-4.3,9.57-9.59,9.56-4.05,0-7.67-2.57-9.02-6.39-.36-1.02-.55-2.1-.55-3.19,0-5.3,4.29-9.59,9.59-9.59s9.59,4.29,9.59,9.59h-.03Z" style="fill: rgb(255, 0, 199);"/><path class="cls-5_artificial-intelligence-1-51" d="M380.69,100.75c0,5.28-4.27,9.57-9.55,9.58,0,0-.02,0-.03,0-2.25.01-4.43-.79-6.14-2.24-.36-1.02-.55-2.1-.55-3.19,0-5.3,4.29-9.6,9.58-9.6,2.25,0,4.42.78,6.15,2.22.36,1.04.54,2.13.53,3.23Z"/><g class="cls-20_artificial-intelligence-1-51"><polygon class="cls-19_artificial-intelligence-1-51 targetColor" points="377.83 159.47 360.18 129.16 379.87 120.73 374.95 111.78 376.24 111.07 381.93 121.44 362.29 129.87 379.1 158.73 377.83 159.47" style="fill: rgb(255, 0, 199);"/></g></g></svg>