<svg version="1.1" id="Layer_1" xmlns="http://www.w3.org/2000/svg" xmlns:xlink="http://www.w3.org/1999/xlink" x="0px" y="0px" viewBox="0 0 500 500" style="width: 144px;" xml:space="preserve" data-imageid="mention-77" imageName="Mention" class="illustrations_image">
<style type="text/css">
	.st0_mention-77{fill:#D1D3D4;}
	.st1_mention-77{fill:#FFFFFF;}
	.st2_mention-77{fill:#231F20;}
	.st3_mention-77{fill:#68E1FD;}
</style>
<path id="Floor_mention-77" class="st0_mention-77" d="M450.3,387.4H47.7c-0.4,0-0.7-0.3-0.7-0.7c0-0.4,0.3-0.7,0.7-0.7h402.5c0.4,0,0.7,0.3,0.7,0.7&#10;&#9;C451,387.1,450.7,387.4,450.3,387.4z"/>
<g id="Rounded_form_mention-77">
	<circle class="st1_mention-77" cx="275.1" cy="283" r="113.4"/>
	<path class="st2_mention-77" d="M275.1,397.1C212.1,397.1,161,346,161,283c0-63,51.1-114.1,114.1-114.1S389.2,220,389.2,283c0,0,0,0,0,0&#10;&#9;&#9;C389.1,346,338.1,397,275.1,397.1z M275.1,170.3c-62.2,0-112.7,50.5-112.7,112.7s50.5,112.7,112.7,112.7&#10;&#9;&#9;c62.2,0,112.7-50.5,112.7-112.7C387.8,220.8,337.3,170.3,275.1,170.3z"/>
</g>
<g id="_icon_mention-77">
	<path class="st3_mention-77 targetColor" d="M332.3,325.9c-6.6,9.1-15.3,16.5-25.5,21.3c-10.2,4.9-21.4,7.4-32.7,7.3c-9.8,0.1-19.4-1.7-28.5-5.2&#10;&#9;&#9;c-8.7-3.3-16.6-8.2-23.4-14.5c-6.8-6.3-12.1-13.8-15.8-22.3c-7.7-18-7.7-38.4-0.1-56.4c3.7-8.4,9-16,15.6-22.4&#10;&#9;&#9;c6.7-6.4,14.5-11.4,23-14.9c8.9-3.6,18.5-5.5,28.2-5.4c8.4,0,16.7,1.4,24.6,4.1c7.9,2.6,15.2,6.7,21.5,12&#10;&#9;&#9;c6.4,5.4,11.6,12.1,15.3,19.6c4,8.3,6,17.5,5.8,26.7c0.1,5.9-0.7,11.8-2.4,17.5c-1.4,4.5-3.4,8.7-6.1,12.5&#10;&#9;&#9;c-2.3,3.2-5.1,6.1-8.3,8.3c-2.9,2-6,3.7-9.3,4.9c-2.9,1.1-5.9,1.9-8.9,2.4c-2.4,0.4-4.7,0.6-7.1,0.7c-5.3,0-9.1-1.1-11.4-3.2&#10;&#9;&#9;c-2.1-1.8-3.4-4.3-3.6-7h-0.4c-2.8,2.7-6,5.1-9.5,7c-3.8,2.1-8.7,3.2-14.8,3.2c-3.8,0.1-7.6-0.8-11.1-2.4c-3.3-1.5-6.2-3.8-8.6-6.5&#10;&#9;&#9;c-2.5-3-4.4-6.4-5.5-10c-1.4-4.2-2-8.5-2-12.9c0-5.4,0.9-10.9,2.7-16c1.7-5,4.2-9.6,7.5-13.6c6.7-8.4,17-13.2,27.8-13&#10;&#9;&#9;c4.3-0.1,8.6,0.7,12.6,2.5c3.5,1.8,6.3,4.7,7.9,8.3h0.4l1.5-8.5h17.8l-7,37.4l-1.1,5.3c-0.4,1.8-0.6,3.7-0.6,5.5&#10;&#9;&#9;c-0.1,1.8,0.2,3.6,1,5.2c0.7,1.2,2.1,1.8,4.1,1.8c2.1,0,4.2-0.6,6-1.6c2.1-1.2,3.9-3,5.2-5.1c1.7-2.7,2.9-5.7,3.7-8.8&#10;&#9;&#9;c2.5-10.9,1.7-22.3-2.3-32.7c-2.3-5.5-5.8-10.5-10.2-14.5c-4.5-4-9.9-7-15.6-8.8c-6.4-2-13.2-3-19.9-2.9c-7.3-0.1-14.6,1.3-21.4,4&#10;&#9;&#9;c-6.3,2.5-11.9,6.3-16.6,11.2c-4.7,4.9-8.3,10.7-10.7,17.1c-2.6,6.8-3.9,14.1-3.8,21.4c-0.1,7.7,1.3,15.3,4.2,22.3&#10;&#9;&#9;c2.6,6.4,6.6,12,11.7,16.7c5.2,4.6,11.2,8.2,17.7,10.5c7.1,2.5,14.6,3.8,22.2,3.7c6.7,0.1,13.4-0.9,19.8-3c5.8-1.9,11.2-4.8,16-8.5&#10;&#9;&#9;L332.3,325.9z M270.4,264.7c-2.9,0-5.9,0.6-8.5,1.8c-2.5,1.1-4.6,2.8-6.4,4.9c-1.7,2.2-3.1,4.6-3.9,7.3c-0.9,2.9-1.3,5.9-1.3,8.9&#10;&#9;&#9;c0,1,0.1,2.5,0.3,4.5c0.2,2,0.8,4,1.7,5.8c1.1,2,2.7,3.8,4.6,5c2.1,1.5,5.2,2.2,9.1,2.2c3.1,0.1,6.2-0.6,8.9-2&#10;&#9;&#9;c2.3-1.3,4.3-3.2,5.7-5.4c1.4-2.3,2.4-4.8,2.9-7.4c0.6-2.7,0.8-5.4,0.9-8.1c0-5.1-1.1-9.2-3.4-12.5S275.3,264.7,270.4,264.7&#10;&#9;&#9;L270.4,264.7z" style="fill: rgb(255, 0, 199);"/>
</g>
<g id="Character_mention-77">
	
		<rect x="111.1" y="135.8" transform="matrix(0.8934 -0.4492 0.4492 0.8934 -56.6489 67.0362)" class="st2_mention-77" width="3.7" height="34.2"/>
	<path class="st2_mention-77" d="M119,169.8c-0.3,0-0.5-0.1-0.6-0.4L103,138.8c-0.1-0.2-0.1-0.4,0-0.5c0.1-0.2,0.2-0.3,0.3-0.4l3.3-1.6&#10;&#9;&#9;c0.3-0.2,0.8,0,0.9,0.3l15.4,30.6c0.1,0.2,0.1,0.4,0,0.5c-0.1,0.2-0.2,0.3-0.3,0.4l-3.3,1.6C119.2,169.7,119.1,169.8,119,169.8z&#10;&#9;&#9; M104.6,138.8l14.8,29.3l2-1l-14.7-29.3L104.6,138.8z"/>
	<path class="st1_mention-77" d="M131.2,180.5c-0.4-1.2-8.3-10.8-8.6-12.9s1.5-10.6-0.3-11.9s-5,6.8-5,6.8s-6.9-12.6-8.9-11.7s-1.3,7.8-0.2,12&#10;&#9;&#9;s13.6,25.1,13.6,25.1L131.2,180.5z"/>
	<path class="st2_mention-77" d="M121.9,188.7h-0.1c-0.2,0-0.4-0.1-0.5-0.3c-0.5-0.9-12.6-21-13.7-25.3c-0.6-2.4-2.3-11.6,0.7-12.8&#10;&#9;&#9;c2-0.8,5.9,5.1,9,10.8c1-2.1,2.7-5.5,4.3-6c0.4-0.1,0.9-0.1,1.2,0.2c1.4,1,1.2,4.2,0.8,8.7c-0.2,1.2-0.2,2.4-0.2,3.6&#10;&#9;&#9;c0.2,1.1,3.5,5.6,5.5,8.3s2.9,3.9,3.1,4.4c0.1,0.3,0,0.6-0.2,0.8l-9.4,7.4C122.1,188.6,122,188.7,121.9,188.7z M108.7,151.6&#10;&#9;&#9;c-1.1,0.5-1,6.2,0.2,11.1c0.9,3.6,11,20.6,13.1,24.2l8.3-6.6c-0.5-0.8-1.6-2.3-2.6-3.6c-3.2-4.4-5.6-7.6-5.8-8.9&#10;&#9;&#9;c-0.1-1.3,0-2.7,0.2-4c0.2-2.2,0.7-6.8-0.2-7.4l0,0c-0.7,0-2.6,3.1-4,6.5c-0.1,0.3-0.3,0.4-0.6,0.4c-0.3,0-0.5-0.1-0.7-0.4&#10;&#9;&#9;C113.8,157.6,109.8,151.7,108.7,151.6z"/>
	<path class="st1_mention-77" d="M97,354.6c0,0-9.9,17.4-9.2,17.5s16.4,4.7,16.4,4.7s9.3-14.1,9.2-14.5S97,354.6,97,354.6z"/>
	<path class="st2_mention-77" d="M104.2,377.5c-0.1,0-0.1,0-0.2,0c-6.2-1.8-15.7-4.6-16.3-4.7c-0.2,0-0.4-0.2-0.6-0.4c-0.2-0.4-0.5-1,9.2-18.1&#10;&#9;&#9;c0.2-0.3,0.6-0.4,0.9-0.3c16.5,7.5,16.7,7.8,16.8,8.1s0.2,0.7-9.2,15.1C104.7,377.4,104.4,377.5,104.2,377.5z M88.6,371.6&#10;&#9;&#9;c2.7,0.7,11.7,3.4,15.3,4.4c3-4.6,7.5-11.5,8.6-13.4c-2-1-9.9-4.7-15.2-7.1C94.1,361,89.6,369.3,88.6,371.6z"/>
	<path class="st2_mention-77" d="M87.8,372.1c0,0-26.7-1.5-28,3.3s38.1,16.9,38.1,16.9l6.4-15.4L87.8,372.1z"/>
	<path class="st2_mention-77" d="M97.8,393c-0.1,0-0.1,0-0.2,0c-9.4-2.9-39.9-12.7-38.5-17.7s24.2-4,28.7-3.8c0.1,0,0.1,0,0.2,0l16.4,4.7&#10;&#9;&#9;c0.2,0.1,0.3,0.2,0.4,0.4c0.1,0.2,0.1,0.4,0,0.6l-6.4,15.4C98.3,392.8,98.1,393,97.8,393z M79.4,372.6c-9.1,0-18.3,0.8-18.9,3&#10;&#9;&#9;c-0.7,2.5,18.5,10.1,37,15.8l5.9-14.1l-15.6-4.5C85.1,372.6,82.2,372.6,79.4,372.6z"/>
	<polygon class="st1_mention-77" points="152.9,357.8 159.7,365.3 172,352.4 162.1,342 &#9;"/>
	<path class="st2_mention-77" d="M159.7,366L159.7,366c-0.2,0-0.4-0.1-0.5-0.2l-6.8-7.5c-0.2-0.2-0.2-0.6-0.1-0.8l9.2-15.8&#10;&#9;&#9;c0.1-0.2,0.3-0.3,0.5-0.3c0.2,0,0.4,0,0.6,0.2l9.9,10.4c0.3,0.3,0.3,0.7,0,1c0,0,0,0,0,0l-12.3,13C160,366,159.8,366,159.7,366z&#10;&#9;&#9; M153.7,357.7l6,6.6l11.3-11.9l-8.8-9.2L153.7,357.7z"/>
	<path class="st2_mention-77" d="M159.7,365.3c0,0-8.9,26.9-4.2,26.5s26.8-28.3,26.8-28.3L172,352.4L159.7,365.3z"/>
	<path class="st2_mention-77" d="M155.3,392.5c-0.5,0-1-0.2-1.3-0.6c-2.6-3.3,3.7-22.9,5-26.8c0-0.1,0.1-0.2,0.2-0.3l12.3-13&#10;&#9;&#9;c0.1-0.1,0.3-0.2,0.5-0.2l0,0c0.2,0,0.4,0.1,0.5,0.2l10.2,11.1c0.2,0.3,0.2,0.6,0,0.9c-2.3,2.9-22.5,28.2-27.3,28.6L155.3,392.5z&#10;&#9;&#9; M160.3,365.7c-2.9,8.7-6.8,23.2-5.1,25.3c0,0.1,0.1,0.1,0.2,0.1c3.1-0.2,17.4-16.9,26-27.6l-9.4-10.1L160.3,365.7z"/>
	<path class="st2_mention-77" d="M145.2,230c0,0-53.8,58.3-54.7,64c-1.7,11.1,61.4,68.3,61.4,68.3l14.4-19.7l-37.5-43.7l49.3-67.4L145.2,230z"/>
	<path class="st2_mention-77" d="M151.9,363c-0.2,0-0.3-0.1-0.5-0.2c-2.6-2.3-63.3-57.5-61.6-68.9c0.8-5.8,49.4-58.4,54.9-64.4&#10;&#9;&#9;c0.1-0.2,0.3-0.2,0.5-0.2l32.9,1.4c0.3,0,0.5,0.2,0.6,0.4c0.1,0.2,0.1,0.5-0.1,0.7l-49,67l37.1,43.3c0.2,0.3,0.2,0.6,0,0.9&#10;&#9;&#9;l-14.4,19.7C152.3,362.9,152.1,363,151.9,363L151.9,363z M145.5,230.7c-21.6,23.4-53.7,59.4-54.3,63.4&#10;&#9;&#9;c-1.3,8.7,42.8,50.9,60.6,67.1l13.6-18.6l-37.2-43.3c-0.2-0.3-0.2-0.6,0-0.9l48.5-66.4L145.5,230.7z"/>
	<polygon class="st2_mention-77" points="189.6,243 110.7,371.6 88.6,358.9 153.8,230.9 &#9;"/>
	<path class="st2_mention-77" d="M110.7,372.4c-0.1,0-0.2,0-0.3-0.1l-22.1-12.7c-0.3-0.2-0.4-0.6-0.3-0.9l65.2-128c0.2-0.3,0.5-0.5,0.9-0.4&#10;&#9;&#9;l35.7,12c0.2,0.1,0.4,0.2,0.4,0.4c0.1,0.2,0.1,0.4-0.1,0.6L111.3,372C111.2,372.2,111,372.3,110.7,372.4z M89.5,358.6l21,12.1&#10;&#9;&#9;l78-127.4l-34.3-11.5L89.5,358.6z"/>
	<path class="st1_mention-77" d="M109.2,317.4c-0.1,0-0.2,0-0.3-0.1c-0.3-0.2-0.5-0.6-0.3-0.9c0,0,0,0,0,0l36.9-70.4l-3.7-6.7&#10;&#9;&#9;c-0.2-0.3,0-0.8,0.3-0.9c0.3-0.1,0.7,0,0.9,0.3l3.9,7c0.1,0.2,0.1,0.5,0,0.7l-37,70.7C109.7,317.3,109.5,317.4,109.2,317.4z"/>
	<path class="st1_mention-77" d="M183.3,145.9c1.3,0.2,2.7,0.1,4-0.4c0.4-0.2,0.8-0.4,1.1-0.8c0.3-0.4,0.3-0.9,0-1.3c-0.6-0.5-1.7-0.1-2.1-0.8&#10;&#9;&#9;c3.1-3.6,4.6-9.4,4.5-14.1c-0.1-5.5-1.6-10.9-4.4-15.6c-0.8-1.6-2-2.9-3.5-3.8c-1.6-0.8-3.8-0.6-4.8,0.8c-3-2.7-7.4-3.5-11.4-2.8&#10;&#9;&#9;c-3.7,0.7-6.8,2.5-10.1,4.1c-3.2,1.4-6.5,2.3-10,2.7c-0.4,0-0.7,0.2-0.9,0.4c-0.1,0.2-0.1,0.5,0,0.7c0.6,3.4,2.6,6.4,5.4,8.3&#10;&#9;&#9;c-0.8,0.2-1.6,0.1-2.3-0.2c0.4,3.1,3.9,4.6,7,5.2c2.2,0.5,4.8,0.8,6.6,2.3c2,1.6,3.5,4.2,5.3,6.1c2.9,3,6.5,5.3,10.5,6.6&#10;&#9;&#9;c1.5,0.5,1.9,1.2,3.2,1.8C182,145.5,182.7,145.7,183.3,145.9z"/>
	<path class="st2_mention-77" d="M184.6,146.7c-0.5,0-1,0-1.4-0.1l0,0c-0.7-0.1-1.4-0.3-2.1-0.7c-0.5-0.3-1-0.5-1.4-0.9&#10;&#9;&#9;c-0.5-0.4-1.1-0.7-1.7-0.9c-4.1-1.3-7.8-3.7-10.8-6.8c-0.8-0.9-1.5-1.7-2.2-2.7c-0.9-1.2-1.9-2.4-3-3.4c-1.4-1.2-3.5-1.6-5.5-2&#10;&#9;&#9;l-0.8-0.2c-2.6-0.5-7-2-7.5-5.8c0-0.2,0.1-0.5,0.3-0.7c0.2-0.1,0.4-0.2,0.6-0.1c-2-2-3.4-4.5-3.9-7.3c-0.1-0.4-0.1-0.8,0.1-1.2&#10;&#9;&#9;c0.3-0.5,0.8-0.8,1.4-0.8c3.4-0.3,6.7-1.2,9.8-2.6l1.4-0.7c2.8-1.6,5.7-2.8,8.9-3.5c4-0.8,8.2,0.1,11.5,2.5&#10;&#9;&#9;c1.5-1.2,3.5-1.3,5.1-0.5c1.6,1,3,2.4,3.8,4.1c2.8,4.9,4.4,10.4,4.5,16c0.1,3.9-1,9.8-4.1,13.9h0.1c0.5,0,1,0.2,1.4,0.5&#10;&#9;&#9;c0.6,0.6,0.6,1.5,0.1,2.2c-0.4,0.5-0.9,0.8-1.4,1C186.7,146.5,185.6,146.7,184.6,146.7z M183.4,145.2c1.2,0.2,2.5,0.1,3.7-0.4&#10;&#9;&#9;c0.3-0.1,0.6-0.3,0.8-0.5c0.1-0.1,0.1-0.3,0-0.4c-0.2-0.1-0.4-0.1-0.6-0.1c-0.6,0-1.2-0.3-1.6-0.8c-0.1-0.3-0.1-0.6,0.1-0.8&#10;&#9;&#9;c3.3-3.8,4.4-9.7,4.3-13.6c-0.1-5.4-1.6-10.6-4.3-15.3c-0.7-1.5-1.8-2.7-3.2-3.5c-1.2-0.6-3.1-0.6-3.9,0.6c-0.2,0.3-0.7,0.4-1,0.2&#10;&#9;&#9;c0,0,0,0-0.1,0c-2.6-2.4-6.6-3.3-10.8-2.6c-3,0.7-5.8,1.8-8.5,3.3l-1.4,0.7c-3.2,1.5-6.7,2.4-10.2,2.7c-0.1,0-0.3,0-0.4,0.1&#10;&#9;&#9;c0,0,0,0.1,0.1,0.2c0.6,3.2,2.4,6,5.1,7.9c0.2,0.2,0.3,0.4,0.3,0.7c-0.1,0.3-0.3,0.5-0.5,0.6c-0.5,0.1-1,0.2-1.5,0.1&#10;&#9;&#9;c1.1,2.2,4.2,3.1,6.1,3.5l0.8,0.2c2.1,0.4,4.4,0.9,6.2,2.3c1.2,1.1,2.3,2.3,3.2,3.6c0.7,0.9,1.4,1.8,2.1,2.6&#10;&#9;&#9;c2.8,2.9,6.3,5.1,10.2,6.4c0.8,0.2,1.5,0.6,2.1,1.1c0.4,0.3,0.8,0.5,1.2,0.8C182.2,144.9,182.8,145.1,183.4,145.2L183.4,145.2z"/>
	<path class="st1_mention-77" d="M157.3,131.2c0,0-4.2,7.6-3.1,9s4.3,0.2,4.3,0.2"/>
	<path class="st2_mention-77" d="M156,141.6c-0.9,0.1-1.8-0.3-2.4-1c-1.2-1.6,1.7-7.4,3.1-9.8c0.2-0.3,0.6-0.4,1-0.2c0.3,0.2,0.4,0.6,0.3,0.9&#10;&#9;&#9;c-2.1,3.7-3.6,7.6-3.2,8.2c0.6,0.8,2.6,0.3,3.5,0c0.4-0.1,0.8,0,0.9,0.4c0.1,0.4,0,0.8-0.4,0.9c0,0,0,0,0,0&#10;&#9;&#9;C157.9,141.4,156.9,141.5,156,141.6z"/>
	<path class="st1_mention-77" d="M157.6,121.6c-2.9,2.7-1.6,7.9-1.3,11.3c0.4,4.8,0.9,9.6,1.5,14.3c0.4,3,8.2,2.5,9.6,1.5v10.1&#10;&#9;&#9;c0,0,2.2,5.4,8.4,2s7.3-7.6,7.3-7.6l-1.6-13.8c0,0-5.2,0.4-8.7-5.5s-4.1-15.5-4.1-15.5S160.4,119,157.6,121.6z"/>
	<path class="st2_mention-77" d="M172,162.6c-0.6,0-1.2-0.1-1.8-0.3c-1.5-0.6-2.8-1.8-3.5-3.3c0-0.1-0.1-0.2-0.1-0.3v-9&#10;&#9;&#9;c-2.5,0.6-5.1,0.6-7.6-0.2c-1-0.3-1.8-1.2-2-2.2c-0.6-4.8-1.1-9.6-1.5-14.4c0-0.6-0.1-1.2-0.2-1.8c-0.4-3.3-0.9-7.5,1.7-10l0,0&#10;&#9;&#9;c2.9-2.8,11.2-3.3,11.5-3.4c0.2,0,0.4,0,0.5,0.2c0.1,0.1,0.2,0.3,0.2,0.5c0,0.1,0.6,9.4,4,15.2c3.2,5.5,7.9,5.2,8.1,5.2&#10;&#9;&#9;c0.4,0,0.7,0.2,0.8,0.6l1.5,13.8c0,0.1,0,0.2,0,0.3c-0.1,0.2-1.3,4.5-7.6,8C174.9,162.2,173.5,162.6,172,162.6z M168.1,158.6&#10;&#9;&#9;c0.5,1.1,1.5,1.9,2.6,2.4c1.6,0.4,3.4,0.1,4.8-0.8c5.2-2.9,6.7-6.4,6.9-7l-1.4-13c-1.6-0.1-5.7-0.9-8.7-5.9s-3.9-12.7-4.1-15.1&#10;&#9;&#9;c-2,0.2-7.9,0.9-10,2.9l0,0c-2.1,2-1.7,5.8-1.3,8.8c0.1,0.7,0.1,1.3,0.2,1.9c0.4,4.8,0.9,9.6,1.5,14.3c0.1,0.5,0.4,0.8,1.1,1.1&#10;&#9;&#9;c2.3,1,6.6,0.4,7.3-0.1c0.2-0.2,0.5-0.2,0.7-0.1c0.2,0.1,0.4,0.4,0.4,0.6L168.1,158.6z"/>
	<path class="st1_mention-77" d="M157.7,143.6c0,0,3.9,2,5.6-2"/>
	<path class="st2_mention-77" d="M159.8,144.8c-0.9,0-1.7-0.2-2.5-0.6c-0.3-0.2-0.4-0.6-0.2-1c0.2-0.3,0.6-0.4,0.9-0.3c0.9,0.4,1.9,0.5,2.8,0.3&#10;&#9;&#9;c0.8-0.4,1.5-1,1.8-1.9c0.1-0.4,0.5-0.6,0.9-0.5c0.4,0.1,0.6,0.5,0.5,0.9c0,0,0,0.1-0.1,0.1c-0.4,1.2-1.4,2.2-2.6,2.7&#10;&#9;&#9;C160.8,144.7,160.3,144.8,159.8,144.8z"/>
	<path class="st1_mention-77" d="M166.7,133.6c0-1.2,0.4-2.4,1.1-3.4c0.4-0.8,0.9-1.6,1.6-2.3c0.6-0.7,1.6-1.1,2.5-1c0.8,0.1,1.6,0.6,2,1.3&#10;&#9;&#9;c0.4,0.7,0.7,1.5,0.8,2.3c0.4,3.7-1.1,7.3-4.1,9.5l0.2-0.3"/>
	<path class="st2_mention-77" d="M170.6,140.8c-0.2,0-0.4-0.1-0.5-0.2c-0.2-0.3-0.2-0.7,0-0.9l0.2-0.3c0.1-0.1,0.3-0.2,0.4-0.2&#10;&#9;&#9;c2.4-2.1,3.6-5.2,3.2-8.4c-0.1-0.7-0.3-1.4-0.7-2c-0.3-0.5-0.9-0.9-1.5-1c-0.7,0-1.4,0.2-1.9,0.8c-0.6,0.6-1.1,1.4-1.4,2.1&#10;&#9;&#9;c-0.6,0.9-0.9,1.9-1,3c0,0.4-0.3,0.7-0.7,0.7c0,0,0,0,0,0c-0.4,0-0.7-0.2-0.7-0.6c0,0,0,0,0,0c0-1.3,0.4-2.6,1.2-3.8&#10;&#9;&#9;c0.4-0.9,1-1.7,1.7-2.5c0.8-0.8,1.9-1.3,3.1-1.2c1,0.2,1.9,0.8,2.5,1.7c0.5,0.8,0.8,1.7,0.9,2.6c0.4,3.9-1.3,7.7-4.4,10&#10;&#9;&#9;C170.9,140.7,170.7,140.8,170.6,140.8z"/>
	<path class="st2_mention-77" d="M167.4,148.7c0,0,4-1.6,5.7-4.5c0,0,0.3,7.3-5.8,9.9L167.4,148.7z"/>
	<path class="st2_mention-77" d="M167.2,154.8c-0.1,0-0.3,0-0.4-0.1c-0.2-0.1-0.3-0.4-0.3-0.6l0.1-5.4c0-0.3,0.2-0.5,0.4-0.6&#10;&#9;&#9;c0,0,3.8-1.5,5.3-4.2c0.2-0.3,0.6-0.4,1-0.2c0.2,0.1,0.3,0.3,0.3,0.6c0,0.3,0.2,7.8-6.2,10.5C167.4,154.7,167.3,154.8,167.2,154.8z&#10;&#9;&#9; M168.1,149.2l-0.1,3.8c2.3-1.4,3.8-3.8,4.2-6.5C170.9,147.6,169.6,148.5,168.1,149.2L168.1,149.2z"/>
	
		<ellipse transform="matrix(0.9711 -0.2387 0.2387 0.9711 -25.8624 41.8339)" class="st2_mention-77" cx="159.8" cy="127.7" rx="0.7" ry="1.7"/>
	<path class="st3_mention-77 targetColor" d="M188.6,151.1c0,0-18.5,2.2-25.2,12.7s-10,49-13.4,51.8s-12.8,17.6-12.6,18.3s54.3,13.8,54.3,13.8&#10;&#9;&#9;s2.2-12.4,6.9-28.7S204.1,151.1,188.6,151.1z" style="fill: rgb(255, 0, 199);"/>
	<path class="st3_mention-77 targetColor" d="M174.6,167.7c-0.4,0.6-18.9,35.5-18.9,35.5l-24.4-27.9L118.4,186c0,0,21.9,36.6,35.8,40.1s42-47.6,41.2-53&#10;&#9;&#9;S180.1,159.8,174.6,167.7z" style="fill: rgb(255, 0, 199);"/>
	<path class="st2_mention-77" d="M155.7,203.9c-0.2,0-0.4-0.1-0.5-0.2l-10.8-12.3c-0.3-0.3-0.3-0.7,0-1c0.3-0.3,0.7-0.3,1,0c0,0,0,0.1,0.1,0.1&#10;&#9;&#9;l10.1,11.6c2.7-5.1,16.1-30.2,16.3-30.6c0.2-0.3,0.6-0.5,0.9-0.3c0,0,0,0,0,0c0.4,0.2,0.5,0.6,0.3,1c0,0,0,0,0,0&#10;&#9;&#9;c-0.2,0.4-16.8,31.5-16.8,31.5C156.2,203.7,156,203.9,155.7,203.9L155.7,203.9z"/>
	<path class="st2_mention-77" d="M154.1,226.1c-0.7,0-1.4,0-2.1-0.1c-9.8-1.4-20-18.8-20.4-19.6c-0.2-0.3,0-0.8,0.3-0.9&#10;&#9;&#9;c0.3-0.2,0.7-0.1,0.9,0.2c0.1,0.2,10.3,17.6,19.4,18.9s18.8-6.6,28.4-23.3c0.2-0.3,0.6-0.5,0.9-0.3c0,0,0,0,0.1,0&#10;&#9;&#9;c0.3,0.2,0.5,0.6,0.3,0.9c0,0,0,0,0,0.1C172.6,218,163.3,226.1,154.1,226.1z"/>
	<path class="st1_mention-77" d="M167.6,264.3c-0.2,0-0.5-0.1-0.6-0.3c-6.8-11.3-1.6-16.5-1.3-16.7c0.3-0.3,0.7-0.3,1,0c0,0,0,0,0,0&#10;&#9;&#9;c0.3,0.3,0.3,0.7,0,1c-0.2,0.2-4.6,4.6,1.6,14.9c0.2,0.3,0.1,0.7-0.2,1c0,0,0,0-0.1,0C167.9,264.3,167.7,264.3,167.6,264.3z"/>
</g>
<g id="Plant_mention-77">
	<path class="st2_mention-77" d="M407,298.5c0.2-2.9-0.4-5.7-1.8-8.2c-1.1-1.8-2.8-3.3-3.7-5.2c-1.6-3.4-0.5-7.3-0.8-11c-0.3-3.1-1.7-6-3.9-8.2&#10;&#9;&#9;c-1.9-1.9-4.4-3.3-6.2-5.3c-3-3.3-3.9-8-5.6-12.2c-2.4-5.9-6.6-10.8-12-14.1c3.3,6.6-4.2,15-0.8,21.6c1.1,2.1,3.1,3.6,3.9,5.8&#10;&#9;&#9;c1.9,5.3-4.4,11.1-2.4,16.4c1,2.6,3.8,4.2,5.1,6.7c1.8,3.4,0.4,7.5,0.5,11.3c0.2,5.2,3.4,9.9,7.2,13.6c2.4,2.3,5,4.2,7.5,6.3&#10;&#9;&#9;c3.1,2.5,4.4,5,7,1.1C404.8,311.4,406.8,305.1,407,298.5z"/>
	<path class="st2_mention-77" d="M410.4,301.5c-1-4-1.7-8.5,0-12.3c1.9-4.3,6.5-7.4,7.1-12.1c0.4-3.1-1.2-6.2-0.6-9.2s3.1-5.1,5.1-7.3&#10;&#9;&#9;c4.7-5.2,7.5-11.8,7.9-18.8c3,3.9,5.9,7.9,7.5,12.5c1.6,4.6,1.6,10-1.1,14.1c-0.8,0.9-1.4,2-1.9,3.1c-0.9,3,1.6,5.8,3,8.6&#10;&#9;&#9;c1.6,3.3,1.2,7.2-0.9,10.2c-2.7,3.3-7.9,4.6-9.2,8.7c-0.3,1.5-0.5,3.1-0.5,4.6c-0.6,5.5-4.4,10.1-9.8,11.7&#10;&#9;&#9;c-3.2,0.8-3.1-0.5-3.7-3.2C412.6,308.6,411.3,305.1,410.4,301.5z"/>
	<path class="st2_mention-77" d="M400.3,272.3c-2.2-7.8-3.2-16-5.5-23.7c-2-6.1-4.5-12-7.4-17.7l9.7,4.1c3.1,1.3,6.5,2.9,7.9,5.9&#10;&#9;&#9;c2.5,5.3-2,12,0.6,17.3c0.9,1.8,2.6,3.1,3.8,4.8c2.9,4,2.4,9.5,0.9,14.1c-0.7,2-3.6,12.4-6.2,9.5c-1-1.1-1.1-5.4-1.6-7&#10;&#9;&#9;C401.8,277.2,401,274.8,400.3,272.3z"/>
	<path class="st2_mention-77" d="M405.7,375.9c-1.9-12.8-8-57.7-8-58.1l1.4-0.2c0.1,0.5,6.1,45.4,8,58.1L405.7,375.9z"/>
	<path class="st2_mention-77" d="M407.7,388h-1.4c0.1-16.1,6.7-73.2,10-76.9l1,1C414.5,315.2,407.8,370.6,407.7,388z"/>
	<path class="st2_mention-77" d="M411,385.1l-1.4-0.1c1.4-32.6-5.5-101.2-5.5-101.9l1.4-0.1C405.5,283.7,412.4,352.4,411,385.1z"/>
	<path class="st1_mention-77" d="M389,345.2h36l-2.5,36.5c-0.4,6.3-5.7,11.2-12,11.2h-7c-6.3,0-11.6-4.9-12-11.2L389,345.2z"/>
	<path class="st2_mention-77" d="M410.5,393.6h-7c-6.7,0-12.2-5.2-12.7-11.9l-2.5-36.5c0-0.2,0.1-0.4,0.2-0.5c0.1-0.1,0.3-0.2,0.5-0.2h36&#10;&#9;&#9;c0.2,0,0.4,0.1,0.5,0.2c0.1,0.1,0.2,0.3,0.2,0.5l-2.5,36.5C422.7,388.4,417.2,393.6,410.5,393.6z M389.8,346l2.5,35.7&#10;&#9;&#9;c0.4,5.9,5.3,10.5,11.3,10.5h7c5.9,0,10.9-4.6,11.3-10.5l2.4-35.7H389.8z"/>
</g>
<g id="Chat_1_mention-77">
	<path class="st1_mention-77" d="M405.4,103.6H274.7c-6.1,0-11,4.9-11,11l0,0v29.4c0,6.1,4.9,11,11,11H375v23c0-1.1,8.6-14.9,13.7-23h16.7&#10;&#9;&#9;c6.1,0,11-4.9,11-11v-29.4C416.4,108.6,411.5,103.6,405.4,103.6C405.4,103.6,405.4,103.6,405.4,103.6z"/>
	<path class="st0_mention-77" d="M375,178.9c-0.4,0-0.7-0.3-0.7-0.7l0,0v-22.3h-99.6c-6.5,0-11.7-5.2-11.7-11.7c0,0,0,0,0,0v-29.4&#10;&#9;&#9;c0-6.5,5.2-11.7,11.7-11.7h130.6c6.5,0,11.7,5.3,11.7,11.7v29.4c0,6.5-5.3,11.7-11.7,11.7h-16.3c-11.9,19-13.3,21.9-13.4,22.4l0,0&#10;&#9;&#9;C375.7,178.5,375.4,178.8,375,178.9C375,178.9,375,178.9,375,178.9z M274.7,104.3c-5.7,0-10.3,4.6-10.3,10.3v29.4&#10;&#9;&#9;c0,5.7,4.6,10.3,10.3,10.3H375c0.4,0,0.7,0.3,0.7,0.7c0,0,0,0,0,0v20c1.6-2.9,5-8.6,12.4-20.4c0.1-0.2,0.4-0.3,0.6-0.3h16.7&#10;&#9;&#9;c5.7,0,10.3-4.6,10.3-10.3v-29.4c0-5.7-4.6-10.3-10.3-10.3H274.7z"/>
	<circle class="st1_mention-77" cx="289" cy="129" r="13.2"/>
	<path class="st0_mention-77" d="M289,142.9c-7.7,0-13.9-6.3-13.9-14s6.3-13.9,14-13.9c7.7,0,13.9,6.3,13.9,14C303,136.7,296.7,142.9,289,142.9&#10;&#9;&#9;z M289,116.4c-6.9,0-12.5,5.6-12.5,12.6c0,6.9,5.6,12.5,12.6,12.5c6.9,0,12.5-5.6,12.5-12.5C301.6,122.1,296,116.4,289,116.4&#10;&#9;&#9;C289,116.4,289,116.4,289,116.4z"/>
	<path class="st0_mention-77" d="M404.3,118.6H313c-0.4,0-0.7-0.3-0.7-0.7c0-0.4,0.3-0.7,0.7-0.7l0,0h91.2c0.4,0,0.7,0.3,0.7,0.7&#10;&#9;&#9;C405,118.2,404.6,118.6,404.3,118.6L404.3,118.6L404.3,118.6z"/>
	<path class="st0_mention-77" d="M404.3,128.3H313c-0.4,0-0.7-0.3-0.7-0.7c0-0.4,0.3-0.7,0.7-0.7l0,0h91.2c0.4,0,0.7,0.3,0.7,0.7&#10;&#9;&#9;C405,128,404.6,128.3,404.3,128.3L404.3,128.3L404.3,128.3z"/>
	<path class="st0_mention-77" d="M386.4,138H313c-0.4,0-0.7-0.3-0.7-0.7s0.3-0.7,0.7-0.7c0,0,0,0,0,0h73.4c0.4,0,0.7,0.3,0.7,0.7&#10;&#9;&#9;C387.1,137.7,386.8,138,386.4,138L386.4,138z"/>
</g>
<g id="Chat_2_mention-77">
	<path class="st1_mention-77" d="M115.1,199.4h-4.3c0-5.5-0.3-13.4-0.3-13.4l-8.3,13.4H65.6c-3.5,0-6.4,2.9-6.4,6.4l0,0v21.8&#10;&#9;&#9;c0,3.5,2.9,6.4,6.4,6.4c0,0,0,0,0,0h49.5c3.5,0,6.4-2.9,6.4-6.4c0,0,0,0,0,0v-21.8C121.5,202.2,118.6,199.4,115.1,199.4&#10;&#9;&#9;L115.1,199.4z"/>
	<path class="st0_mention-77" d="M115.1,234.7H65.6c-3.9,0-7.1-3.2-7.1-7.1v-21.8c0-3.9,3.2-7.1,7.1-7.1h36.2l8.1-13.1c0.2-0.3,0.6-0.4,1-0.2&#10;&#9;&#9;c0.2,0.1,0.3,0.3,0.3,0.6c0,0.1,0.2,7.3,0.3,12.7h3.6c3.9,0,7.1,3.2,7.1,7.1v21.8C122.2,231.5,119,234.7,115.1,234.7z M65.6,200.1&#10;&#9;&#9;c-3.1,0-5.7,2.6-5.7,5.7v21.8c0,3.1,2.6,5.7,5.7,5.7h49.5c3.2,0,5.7-2.6,5.7-5.7l0,0v-21.8c0-3.2-2.6-5.7-5.7-5.7h0h-4.3&#10;&#9;&#9;c-0.4,0-0.7-0.3-0.7-0.7c0-3.6-0.1-8.3-0.2-11.1l-7.1,11.4c-0.1,0.2-0.4,0.3-0.6,0.3H65.6z"/>
	<circle class="st1_mention-77" cx="74.1" cy="216.7" r="9.1"/>
	<path class="st0_mention-77" d="M74.1,226.5c-5.4,0-9.8-4.4-9.8-9.8s4.4-9.8,9.8-9.8s9.8,4.4,9.8,9.8c0,0,0,0,0,0&#10;&#9;&#9;C83.9,222.1,79.5,226.5,74.1,226.5z M74.1,208.3c-4.7,0-8.4,3.8-8.4,8.4c0,4.7,3.8,8.4,8.4,8.4c4.7,0,8.4-3.8,8.4-8.4c0,0,0,0,0,0&#10;&#9;&#9;C82.5,212,78.7,208.3,74.1,208.3z"/>
	<path class="st0_mention-77" d="M114.2,212.7H88.8c-0.4,0-0.7-0.3-0.7-0.7c0-0.4,0.3-0.7,0.7-0.7h25.4c0.4,0,0.7,0.3,0.7,0.7&#10;&#9;&#9;C114.9,212.4,114.6,212.7,114.2,212.7C114.2,212.7,114.2,212.7,114.2,212.7z"/>
	<path class="st0_mention-77" d="M108.8,221.4h-20c-0.4,0-0.7-0.3-0.7-0.7c0-0.4,0.3-0.7,0.7-0.7h20c0.4,0,0.7,0.3,0.7,0.7&#10;&#9;&#9;C109.5,221.1,109.2,221.4,108.8,221.4C108.8,221.4,108.8,221.4,108.8,221.4z"/>
</g>
</svg>