<svg xmlns="http://www.w3.org/2000/svg" xmlns:xlink="http://www.w3.org/1999/xlink" width="500" zoomAndPan="magnify" viewBox="0 0 375 374.999991" height="500" preserveAspectRatio="xMidYMid meet" version="1.0"><defs><clipPath id="b55d9738ad"><path d="M 0 58.359375 L 375 58.359375 L 375 316.359375 L 0 316.359375 Z M 0 58.359375 " clip-rule="nonzero"/></clipPath><clipPath id="f508d95bf4"><path d="M 163.105469 116.4375 L 195.613281 116.4375 L 195.613281 147.523438 L 163.105469 147.523438 Z M 163.105469 116.4375 " clip-rule="nonzero"/></clipPath></defs><g clip-path="url(#b55d9738ad)"><path fill="#ff00c7" d="M 91.671875 260.011719 L 91.671875 228.335938 L 22.945312 228.335938 L 22.945312 260.011719 Z M 148.386719 146.75 L 148.386719 114.988281 L 0.0078125 114.988281 L 0.0078125 146.664062 L 148.386719 146.664062 Z M 31.933594 203.378906 L 0.0078125 203.378906 L 0.0078125 171.703125 L 31.933594 171.703125 Z M 90.246094 91.210938 L 90.246094 59.535156 L 58.316406 59.535156 L 58.316406 91.210938 Z M 132.507812 58.359375 L 245.851562 58.359375 C 281.394531 58.359375 313.65625 72.894531 337.101562 96.253906 C 360.542969 119.695312 374.992188 151.960938 374.992188 187.5 C 374.992188 223.039062 360.457031 255.304688 337.101562 278.746094 C 313.65625 302.1875 281.394531 316.640625 245.851562 316.640625 L 116.628906 316.640625 L 116.628906 203.378906 L 58.316406 203.378906 L 58.316406 171.703125 L 206.699219 171.703125 L 206.699219 203.378906 L 148.386719 203.378906 L 148.386719 285.046875 L 245.851562 285.046875 C 272.65625 285.046875 297.023438 274.042969 314.667969 256.398438 C 332.3125 238.753906 343.316406 214.300781 343.316406 187.585938 C 343.316406 160.78125 332.3125 136.414062 314.667969 118.769531 C 297.023438 101.125 272.65625 90.121094 245.851562 90.121094 L 116.628906 90.121094 L 116.628906 58.359375 Z M 132.507812 58.359375 " fill-opacity="1" fill-rule="evenodd"/></g><g clip-path="url(#f508d95bf4)"><path fill="#ff00c7" d="M 163.105469 116.4375 L 195.648438 116.4375 L 195.648438 147.523438 L 163.105469 147.523438 Z M 163.105469 116.4375 " fill-opacity="1" fill-rule="nonzero"/></g></svg>