<svg id="_0480_finger_print" data-name="0480_finger_print" xmlns="http://www.w3.org/2000/svg" viewBox="0 0 500 500" data-imageid="fingerprint-91" imageName="Fingerprint" class="illustrations_image" style="width: 144px;"><defs><style>.cls-1_fingerprint-91{fill:#fff;}.cls-2_fingerprint-91{fill:#231f20;}.cls-3_fingerprint-91{fill:#d1d3d4;}.cls-4_fingerprint-91{fill:#68e1fd;}</style></defs><g id="Right_Hand_fingerprint-91" data-name="Right Hand"><path class="cls-1_fingerprint-91" d="M278.32,383.54c.05,5.09.58,17.2,1.14,28.78H362.9c-7-55.55-22.17-166.82-31.44-175.23C262.24,174.28,230.18,174.52,222.9,191s12.26,130.3,12.26,130.3S278.21,372.51,278.32,383.54Z"/><path class="cls-2_fingerprint-91" d="M362.9,413H279.46a.7.7,0,0,1-.7-.67c-.72-14.81-1.1-24.5-1.14-28.8h0c-.11-10.66-42.57-61.33-43-61.84a.67.67,0,0,1-.15-.33c-.8-4.66-19.48-114.26-12.2-130.7a15.84,15.84,0,0,1,11.77-9.2c11.26-2.38,38.94,1.61,97.89,55.09,9.25,8.39,23.81,113.66,31.66,175.66a.66.66,0,0,1-.17.55A.69.69,0,0,1,362.9,413Zm-82.78-1.4h82c-13.29-104.71-24.63-168.12-31.12-174-58.49-53.07-85.66-57.09-96.66-54.76a14.46,14.46,0,0,0-10.78,8.39c-7,15.75,11.38,124.48,12.27,129.72,3,3.6,43.09,51.6,43.2,62.58h0C279.06,387.75,279.43,397.2,280.12,411.62Z"/></g><g id="Smartphone_fingerprint-91"><rect class="cls-2_fingerprint-91" x="162.9" y="87.68" width="141.12" height="273.72" rx="10.29"/><path class="cls-2_fingerprint-91" d="M289.61,362.1H177.32A15.12,15.12,0,0,1,162.21,347V102.09A15.12,15.12,0,0,1,177.32,87H289.61a15.13,15.13,0,0,1,15.11,15.11V347A15.13,15.13,0,0,1,289.61,362.1ZM177.32,88.38a13.73,13.73,0,0,0-13.72,13.71V347a13.73,13.73,0,0,0,13.72,13.71H289.61A13.73,13.73,0,0,0,303.32,347V102.09a13.73,13.73,0,0,0-13.71-13.71Z"/><path class="cls-1_fingerprint-91" d="M174.57,97.35H292.36a3.16,3.16,0,0,1,3.16,3.16V345.7a0,0,0,0,1,0,0H171.41a0,0,0,0,1,0,0V100.51A3.16,3.16,0,0,1,174.57,97.35Z"/><path class="cls-2_fingerprint-91" d="M264.86,108h-62.8a5.74,5.74,0,0,1-5.46-4l-4.17-13H274.5l-4.17,13A5.75,5.75,0,0,1,264.86,108Z"/><path class="cls-2_fingerprint-91" d="M264.86,108.71h-62.8a6.43,6.43,0,0,1-6.13-4.47l-4.17-13a.72.72,0,0,1,.1-.62.73.73,0,0,1,.57-.29H274.5a.7.7,0,0,1,.56.29.69.69,0,0,1,.1.62l-4.17,13A6.42,6.42,0,0,1,264.86,108.71ZM193.38,91.76l3.88,12a5,5,0,0,0,4.8,3.5h62.8a5,5,0,0,0,4.8-3.5l3.88-12Z"/><rect class="cls-3_fingerprint-91" x="171.41" y="122.68" width="124.11" height="1.4"/><path class="cls-3_fingerprint-91" d="M243.38,98.05H209.22a.7.7,0,1,1,0-1.4h34.16a.7.7,0,0,1,0,1.4Z"/><circle class="cls-3_fingerprint-91" cx="253.89" cy="97.07" r="2.46"/></g><g id="Fingerprint_Scanner_fingerprint-91" data-name="Fingerprint Scanner"><path class="cls-4_fingerprint-91 targetColor" d="M216,233.77a15.08,15.08,0,0,1-4.05.54,1.35,1.35,0,0,1-.49-2.55,2.45,2.45,0,0,1,.79-.18,12.93,12.93,0,0,0,5.46-1.34,15.38,15.38,0,0,0,5.75-4.58,11.06,11.06,0,0,0,2.23-4.81c.24-1.33.32-2.68.43-4a19.81,19.81,0,0,1,.61-4.47,6.09,6.09,0,0,1,2.09-3.08,7.09,7.09,0,0,1,3.22-1.54,5.7,5.7,0,0,1,2.81.21A8.4,8.4,0,0,1,240,212.8a9,9,0,0,1,.77,3.53,27.93,27.93,0,0,1-.37,5.7,38.66,38.66,0,0,1-1.18,4.86,32,32,0,0,1-3.41,7.53,24.45,24.45,0,0,1-7.67,7.94,22,22,0,0,1-5.31,2.44,6.89,6.89,0,0,0-1.52.74,1.44,1.44,0,0,0-.59,1.86,1.71,1.71,0,0,1-.06,1.48,1.35,1.35,0,0,1-2.41-.25,4.64,4.64,0,0,1-.17-3.18,4.43,4.43,0,0,1,1.76-2.24,9.7,9.7,0,0,1,2.63-1.17,18.56,18.56,0,0,0,3.72-1.67,21,21,0,0,0,7.3-7.29,29.32,29.32,0,0,0,2.7-5.65,32.62,32.62,0,0,0,1.39-5.24,23.48,23.48,0,0,0,.41-6.48,6.21,6.21,0,0,0-2.06-4.07,4.74,4.74,0,0,0-1.68-1,3.33,3.33,0,0,0-2.87.24,3.84,3.84,0,0,0-2,2.31,13,13,0,0,0-.35,2c-.1,1-.13,1.92-.2,2.89a20.91,20.91,0,0,1-.72,4.59,14.63,14.63,0,0,1-2.05,4.2A18.41,18.41,0,0,1,216,233.77Z" style="fill: rgb(255, 0, 199);"/><path class="cls-4_fingerprint-91 targetColor" d="M244.75,227.61c-.43,1.33-.87,2.67-1.28,4s-.8,2.59-1.1,3.91a5.45,5.45,0,0,0-.07,2.51,2.46,2.46,0,0,0,1.6,1.79,1.52,1.52,0,0,1,1,1.14,1.35,1.35,0,0,1-1.65,1.55,5.15,5.15,0,0,1-3.28-2.7,6.36,6.36,0,0,1-.5-3.17,18.74,18.74,0,0,1,1-4.8c.51-1.54,1.06-3.07,1.55-4.61.56-1.77,1.13-3.54,1.59-5.33a19.16,19.16,0,0,0,.64-5,12.5,12.5,0,0,0-2.47-7.26,12.29,12.29,0,0,0-4-3.65,10.52,10.52,0,0,0-6.88-1.33,8.8,8.8,0,0,0-6.8,5.16,16.4,16.4,0,0,0-1.57,5.75,13.93,13.93,0,0,1-4.53,9.19,13.07,13.07,0,0,1-5.51,2.92c-.75.2-1.52.34-2.28.47a1.4,1.4,0,0,1-1.47-1.11,1.38,1.38,0,0,1,1.17-1.62,11,11,0,0,0,7.6-4.12,10.77,10.77,0,0,0,2-4.19c.19-.84.29-1.7.4-2.56a17.05,17.05,0,0,1,2.66-7.48,11.42,11.42,0,0,1,5.55-4.5,12.34,12.34,0,0,1,5.78-.67,13.27,13.27,0,0,1,5,1.57,14.59,14.59,0,0,1,4.33,3.57,16.93,16.93,0,0,1,3,5.19,15.18,15.18,0,0,1,.72,6.06,22.56,22.56,0,0,1-.67,4.24C245.84,224.26,245.3,225.93,244.75,227.61Z" style="fill: rgb(255, 0, 199);"/><path class="cls-4_fingerprint-91 targetColor" d="M233.87,198.4a15.44,15.44,0,0,0-10.19,2.47c-.75.51-1.75,1.08-2.47.54a1.38,1.38,0,0,1-.26-1.71,3.51,3.51,0,0,1,1.35-1.27,19.45,19.45,0,0,1,19.33-.47A22.33,22.33,0,0,1,253,218.05c0,1.31-.2,2.61-.35,3.92a30.35,30.35,0,0,1-1.43,6c-.42,1.25-1,2.46-1.46,3.67a6.5,6.5,0,0,0-.52,3.14,4.4,4.4,0,0,0,1.17,2.66c.72.75,1.87,1.07,2.49,1.91a1.38,1.38,0,0,1-.27,2.05,1.7,1.7,0,0,1-1.25-.09,8,8,0,0,1-2.83-1.85,6.59,6.59,0,0,1-1.56-2.43,9.11,9.11,0,0,1-.47-2.13,8.37,8.37,0,0,1,.6-4c.33-.82.75-1.6,1-2.43a43.81,43.81,0,0,0,1.31-4.32,32.06,32.06,0,0,0,.75-4.59,23,23,0,0,0-.11-5.24,15.52,15.52,0,0,0-.81-3.47,29.23,29.23,0,0,0-1.46-3.16,18.61,18.61,0,0,0-6-6.45,17.78,17.78,0,0,0-4-2A16.82,16.82,0,0,0,233.87,198.4Z" style="fill: rgb(255, 0, 199);"/><path class="cls-4_fingerprint-91 targetColor" d="M253,199.56a34.43,34.43,0,0,1,4.72,9.1,3.57,3.57,0,0,1,.25,2,1.32,1.32,0,0,1-2.09.73c-1.31-.93-1.67-4.26-2.33-5.69a24.3,24.3,0,0,0-10-11.12,23.59,23.59,0,0,0-5.07-2.1,21.36,21.36,0,0,0-11.63-.06,20.24,20.24,0,0,0-7.66,4,19.84,19.84,0,0,0-5.33,6.66c-.61,1.26-1.19,2.54-1.7,3.85-.33.81-.5,1.69-.76,2.53a1.27,1.27,0,0,1-1.15,1,1.25,1.25,0,0,1-1.41-.82,1.64,1.64,0,0,1-.06-.93,29.21,29.21,0,0,1,1.5-4.49,30.49,30.49,0,0,1,2.76-5.13,23,23,0,0,1,4.69-5A22.7,22.7,0,0,1,222.9,191a23.06,23.06,0,0,1,5.63-1.66,23.41,23.41,0,0,1,5.73-.28,28.18,28.18,0,0,1,4.18.66,25.38,25.38,0,0,1,7,2.82A25.78,25.78,0,0,1,253,199.56Z" style="fill: rgb(255, 0, 199);"/><path class="cls-4_fingerprint-91 targetColor" d="M233.24,182.35a35.92,35.92,0,0,1,4.44.43,27.66,27.66,0,0,1,13.3,6.05c.71.59,1.39,1.21,2.06,1.85a1.3,1.3,0,0,1,0,1.9,1.35,1.35,0,0,1-1.91,0,28.28,28.28,0,0,0-4.86-3.78,25.86,25.86,0,0,0-6-2.68,25.51,25.51,0,0,0-4.65-.92,26,26,0,0,0-5.22-.07,25.58,25.58,0,0,0-6.41,1.45,26.36,26.36,0,0,0-7.52,4.24c-.67.53-1.33,1.09-2,1.67a1.35,1.35,0,1,1-1.82-2,31.12,31.12,0,0,1,7.23-5.08,28.27,28.27,0,0,1,5.07-2A27.94,27.94,0,0,1,233.24,182.35Z" style="fill: rgb(255, 0, 199);"/><path class="cls-4_fingerprint-91 targetColor" d="M245.69,249.41a8.17,8.17,0,0,1-4.71-1.6c-1.17-.84-2.24-1.82-3.36-2.73a7.5,7.5,0,0,0-1-.69,1,1,0,0,0-1.25.28c-.8.71-1.58,1.44-2.32,2.21a30.52,30.52,0,0,1-4.29,3.9,14.54,14.54,0,0,1-5,2.26,2.15,2.15,0,0,1-1.48,0,1.43,1.43,0,0,1-.79-1.32,1.39,1.39,0,0,1,1-1.24,11.67,11.67,0,0,0,4.82-2.08,34,34,0,0,0,4.15-3.9,23.18,23.18,0,0,1,2.45-2.2,3.58,3.58,0,0,1,3.06-.7,4.8,4.8,0,0,1,2,1.07c.92.77,1.82,1.58,2.75,2.35a6.85,6.85,0,0,0,2.74,1.45,5.15,5.15,0,0,0,2.67-.08,10.23,10.23,0,0,0,2.45-1.12,1.35,1.35,0,0,1,1.78.44,1.32,1.32,0,0,1-.31,1.83,10,10,0,0,1-3.56,1.56C246.93,249.25,246.31,249.32,245.69,249.41Z" style="fill: rgb(255, 0, 199);"/><path class="cls-4_fingerprint-91 targetColor" d="M259.37,221.51a40,40,0,0,1-.44,5.5,33.27,33.27,0,0,1-1.84,6.81c-.34.87-.75,1.71-1.15,2.56a1.39,1.39,0,0,1-1.72.61,1.36,1.36,0,0,1-.73-1.77c.44-1,.94-2,1.3-3.09.45-1.32.83-2.66,1.16-4a27.58,27.58,0,0,0,.66-7.79c-.05-1.15-.21-2.29-.35-3.43a1.4,1.4,0,0,1,1.12-1.56,1.33,1.33,0,0,1,1.54,1A27.65,27.65,0,0,1,259.37,221.51Z" style="fill: rgb(255, 0, 199);"/><path class="cls-4_fingerprint-91 targetColor" d="M212.18,217.48c1.34-1.27,1.77-3,2.13-5.06a27.89,27.89,0,0,1,1.32-5,22,22,0,0,1,1.6-3.36,1.37,1.37,0,1,1,2.33,1.42,17.78,17.78,0,0,0-1.87,4.37c-.3,1.08-.5,2.19-.72,3.29a18,18,0,0,1-1.28,4.25,7,7,0,0,1-4.22,3.88,15.69,15.69,0,0,1-2.48.44,1.33,1.33,0,0,1-1.44-1.24c-.06-1.65,1.87-1.38,2.93-1.86A5.82,5.82,0,0,0,212.18,217.48Z" style="fill: rgb(255, 0, 199);"/><path class="cls-4_fingerprint-91 targetColor" d="M235.15,216.54a34.74,34.74,0,0,1-.49,4.77,27.42,27.42,0,0,1-1.65,5.84,22.68,22.68,0,0,1-3.06,5.34,1.37,1.37,0,1,1-2.16-1.68,19.78,19.78,0,0,0,2.85-5.07,24.4,24.4,0,0,0,1.32-4.82,35,35,0,0,0,.48-5.4,1.36,1.36,0,0,1,.87-1.32,1.34,1.34,0,0,1,1.61.56,2.23,2.23,0,0,1,.22.86A7.06,7.06,0,0,1,235.15,216.54Z" style="fill: rgb(255, 0, 199);"/><path class="cls-4_fingerprint-91 targetColor" d="M238,250.9a16.61,16.61,0,0,1,4.5.61,1.4,1.4,0,0,1,1.11,1.33,1.31,1.31,0,0,1-1,1.34,1.15,1.15,0,0,1-.61,0,14.38,14.38,0,0,0-3.74-.59,11.68,11.68,0,0,0-3.38.4,13.1,13.1,0,0,0-3.23,1.36,1.36,1.36,0,0,1-1.79-.53,1.32,1.32,0,0,1,.38-1.77,16.06,16.06,0,0,1,2.27-1.14,13.68,13.68,0,0,1,2.44-.72c1-.2,2.05-.28,3.08-.41Z" style="fill: rgb(255, 0, 199);"/><path class="cls-4_fingerprint-91 targetColor" d="M215.09,240.86a1.37,1.37,0,0,1-1.38-1.09,1.34,1.34,0,0,1,1-1.61c.87-.21,1.75-.36,2.62-.59a19.83,19.83,0,0,0,5-2.07c.54-.32,1.07-.66,1.59-1a1.37,1.37,0,0,1,1.92.3,1.35,1.35,0,0,1-.37,1.93,19.5,19.5,0,0,1-5.23,2.74c-1.24.43-2.51.78-3.78,1.13A14.23,14.23,0,0,1,215.09,240.86Z" style="fill: rgb(255, 0, 199);"/><path class="cls-3_fingerprint-91" d="M233.46,264.49A45.56,45.56,0,1,1,279,218.94,45.6,45.6,0,0,1,233.46,264.49Zm0-89.71a44.16,44.16,0,1,0,44.16,44.16A44.2,44.2,0,0,0,233.46,174.78Z"/><path class="cls-4_fingerprint-91 targetColor" d="M183.31,192.07a1.4,1.4,0,0,1-1.4-1.39V165.45a1.4,1.4,0,0,1,1.4-1.4h25.83a1.4,1.4,0,1,1,0,2.8H184.71v23.83A1.4,1.4,0,0,1,183.31,192.07Z" style="fill: rgb(255, 0, 199);"/><path class="cls-4_fingerprint-91 targetColor" d="M283.61,192.07a1.4,1.4,0,0,1-1.4-1.39V166.85H257.78a1.4,1.4,0,1,1,0-2.8h25.83a1.39,1.39,0,0,1,1.4,1.4v25.23A1.39,1.39,0,0,1,283.61,192.07Z" style="fill: rgb(255, 0, 199);"/><path class="cls-4_fingerprint-91 targetColor" d="M209.14,273.83H183.31a1.4,1.4,0,0,1-1.4-1.4V247.2a1.4,1.4,0,0,1,2.8,0V271h24.43a1.4,1.4,0,0,1,0,2.8Z" style="fill: rgb(255, 0, 199);"/><path class="cls-4_fingerprint-91 targetColor" d="M283.61,273.83H257.78a1.4,1.4,0,0,1,0-2.8h24.43V247.2a1.4,1.4,0,0,1,2.8,0v25.23A1.39,1.39,0,0,1,283.61,273.83Z" style="fill: rgb(255, 0, 199);"/></g><g id="Left_Hand_fingerprint-91" data-name="Left Hand"><path class="cls-1_fingerprint-91" d="M239.93,412.32A89.57,89.57,0,0,1,249,389.27c11.32-19.16,62.76-47.77,65.08-50.72,5.54-7,7.67-19.53-1.09-19.87s-48.53,9.95-61.36,18.49c0,0-5.17-54.65-4.65-68.1,2.48-65.38-18.42-60.53-21.2-53.43S219,305.58,219,305.58s-10.29-10.19-16.37-10.5-11.32,11.44-11.32,11.44-9.89-7.49-15-6.31C164.5,303,165.45,317,165.45,317s-5.6-7-10.43-6.72c-4.08.27-12.23,5.15-13.77,22.77-2.2,25.29-3.46,57.23-4.15,79.23Z"/><path class="cls-2_fingerprint-91" d="M239.93,413H137.1a.68.68,0,0,1-.5-.22.7.7,0,0,1-.2-.5c1-32.66,2.42-59.33,4.16-79.27,1.55-17.83,9.79-23.1,14.42-23.4,3.79-.26,7.81,3.46,9.79,5.57.23-4.05,1.81-13.44,11.4-15.67,4.59-1.06,12.46,4.22,14.85,5.92,1.31-2.66,5.89-11.07,11.36-11.07h.27c5.13.25,12.83,7,15.7,9.63.58-11.68,4.18-81.95,6.79-88.63a7.32,7.32,0,0,1,8.19-4.24c4.94,1,16.23,8.73,14.36,57.94-.47,12.18,3.81,58.94,4.54,66.87,13.89-8.52,50.94-18,60.34-18H313a6.21,6.21,0,0,1,5.8,3.61c2.2,4.78-.39,12.6-4.18,17.39-.65.83-3.81,2.86-10.34,7-16.21,10.33-46.39,29.57-54.69,43.61a88,88,0,0,0-9,22.87A.71.71,0,0,1,239.93,413Zm-102.11-1.4H239.39a88.87,88.87,0,0,1,9-22.71c8.47-14.33,38.83-33.68,55.14-44.08,5.09-3.24,9.47-6,10-6.71,3.95-5,5.75-12.17,4-15.95a4.85,4.85,0,0,0-4.58-2.79h-.42c-9.25,0-48,10-60.52,18.38a.69.69,0,0,1-1.08-.52c-.06-.54-5.17-54.85-4.66-68.19,1.88-49.49-9.66-55.77-13.24-56.52a5.87,5.87,0,0,0-6.61,3.38c-2.71,6.92-6.73,88.89-6.77,89.72a.69.69,0,0,1-.44.62.72.72,0,0,1-.75-.16c-.1-.1-10.16-10-15.9-10.3h-.2c-5.45,0-10.4,10.91-10.45,11a.68.68,0,0,1-.47.39.66.66,0,0,1-.59-.12c-.1-.07-9.69-7.28-14.39-6.18-11.09,2.59-10.37,15.55-10.33,16.1a.69.69,0,0,1-.45.7.7.7,0,0,1-.8-.22c-.05-.06-5.43-6.75-9.83-6.45-3.89.26-11.65,5.21-13.12,22.13C140.23,352.92,138.84,379.32,137.82,411.62Z"/></g><g id="Right_Thumb_fingerprint-91" data-name="Right Thumb"><path class="cls-1_fingerprint-91" d="M346.85,299.94s-8-58.53-19.54-69.34c-13.76-12.84-39.3-45.25-46.19-41.84-10.42,5.16,4.1,43.57,22.9,57.33,0,0-3.43,21.94,6.21,62.3"/><path class="cls-2_fingerprint-91" d="M310.22,309a.64.64,0,0,1-.62-.5c-8.86-37.14-6.65-59-6.26-62.15-12.67-9.52-27.6-35.82-26.27-51.18.31-3.57,1.58-5.93,3.77-7,4.85-2.42,15.83,8.89,32,26.42,5.53,6,10.74,11.64,14.9,15.52,11.62,10.84,19.42,67.32,19.74,69.72a.64.64,0,0,1-.55.72.66.66,0,0,1-.72-.55c-.08-.58-8.06-58.42-19.34-68.95-4.19-3.92-9.43-9.59-15-15.59-11.64-12.62-26.13-28.29-30.49-26.15-1.77.88-2.8,2.89-3.07,6-1.1,12.82,11.33,39.49,26.06,50.27a.62.62,0,0,1,.25.61c0,.22-3.29,22.3,6.2,62.05a.64.64,0,0,1-.48.77Z"/></g></svg>